<svg width="140" height="140" viewBox="0 0 140 140" fill="none" xmlns="http://www.w3.org/2000/svg">
<circle cx="70" cy="70" r="70" fill="#CACACA" fill-opacity="0.3"/>
<path d="M78.1733 101.9L81.5052 81.0766L59.0154 71.9141L55.6836 103.566L78.1733 101.9Z" fill="#DEA5AD"/>
<path d="M72.4888 87.7707C85.155 87.7707 95.423 77.5027 95.423 64.8365C95.423 52.1703 85.155 41.9023 72.4888 41.9023C59.8227 41.9023 49.5547 52.1703 49.5547 64.8365C49.5547 77.5027 59.8227 87.7707 72.4888 87.7707Z" fill="#DEA5AD"/>
<path fill-rule="evenodd" clip-rule="evenodd" d="M100.777 132.675C98.846 133.617 96.8784 134.466 94.8813 135.22C90.887 136.732 86.7641 137.872 82.5345 138.633C78.4006 139.38 74.1562 139.759 69.9119 139.759C64.178 139.759 58.4773 139.071 52.9641 137.71C50.8052 137.181 48.6278 136.533 46.4874 135.779C46.3893 135.744 46.2905 135.708 46.1916 135.673L46.1904 135.673C46.0635 135.627 45.9365 135.582 45.8106 135.536C43.1551 134.573 40.5438 133.444 38.0319 132.168C37.6938 131.999 37.3558 131.826 37.0178 131.642L37.0178 131.642L36.9249 131.594C36.5902 131.422 36.258 131.241 35.9229 131.054L35.8968 131.039L35.8691 131.024C35.3997 130.767 34.9338 130.5 34.4679 130.229C33.0374 129.401 31.6277 128.514 30.2711 127.591C30.1211 127.489 29.9718 127.387 29.8231 127.284L29.7854 127.258L29.7234 127.217C29.691 127.194 29.6585 127.172 29.6263 127.149L29.6258 127.149C29.5873 127.122 29.549 127.096 29.5114 127.069C29.4949 127.057 29.4786 127.046 29.4626 127.034C28.3204 126.237 27.2073 125.405 26.1204 124.547C26.1126 124.542 26.1074 124.537 26.0996 124.529L26.0995 124.529L26.0994 124.529C24.1599 122.966 22.2915 121.284 20.5046 119.497C19.352 118.345 18.2441 117.158 17.1836 115.939L17.3441 115.266L17.3599 115.197L17.5599 114.339C19.3389 106.826 25.3573 101.061 32.9389 99.6079L43.0125 97.6789L44.2073 97.4526L44.1679 97.6497L54.5015 93.4023H79.7614L87.7314 96.6977C87.7314 96.6977 87.7719 96.8486 87.8528 97.1392L98.0987 99.103C105.679 100.556 111.7 106.323 113.476 113.837L115.436 122.138L115.631 122.954C112.663 125.481 109.482 127.769 106.124 129.777C105.812 129.966 105.494 130.151 105.175 130.337L105.127 130.365C103.7 131.189 102.248 131.958 100.777 132.675C100.777 132.675 100.777 132.675 100.777 132.675Z" fill="#00BFA6"/>
<path d="M98.9 70.9666C98.3041 73.188 95.3067 83.1148 87.6308 85.2037C86.1229 85.6157 82.5259 86.0902 83.4785 85.2037C83.6955 85.0015 83.9051 84.8029 84.1148 84.6079C92.4452 76.774 95.8436 71.9855 94.2915 61.3562C93.3058 54.5887 82.0809 48.443 75.7659 47.8324C73.1031 47.5752 69.7047 48.476 67.4612 50.797C63.7576 54.6218 64.3681 66.362 62.3158 73.2581C61.7642 75.1042 61.0249 76.6048 59.9619 77.5132C59.2999 78.0796 58.877 77.3587 58.5643 76.1781C57.8987 73.6697 57.7258 69.0762 56.7806 70.3743C54.0479 74.137 56.6518 79.124 57.4389 81.0478C57.6007 81.4414 57.7662 81.82 57.9317 82.1806V82.1842C58.0273 82.39 58.1267 82.5961 58.2223 82.7912V82.7948C60.8483 88.1496 64.0039 90.0658 66.7845 93.4018C67.8768 94.7074 68.9103 96.2263 69.8335 98.2567C70.4661 99.6471 70.9221 101.045 71.2348 102.416C72.8272 109.294 70.9368 115.543 70.4256 117.242C69.3553 120.78 67.5164 126.86 62.1209 130.291C55.3461 134.602 49.1636 130.803 46.2066 134.896C46.1698 134.944 46.1366 134.992 46.1036 135.039C45.9932 135.205 45.8939 135.371 45.8093 135.536C43.1539 134.572 40.5425 133.443 38.0306 132.167C37.6922 131.998 37.3538 131.825 37.0155 131.641C36.6403 131.45 36.2689 131.248 35.8937 131.038C35.879 130.751 35.8643 130.464 35.8532 130.174C35.6363 125.197 35.9636 119.728 37.2031 114.274C37.9975 110.791 38.7846 107.337 39.9909 104.009C40.778 101.839 41.7415 99.7203 43.0104 97.6791C44.0256 96.0388 45.2319 94.4462 46.6957 92.9162C49.9103 89.5583 52.768 88.1572 53.2204 84.6114C53.8676 79.5507 48.5972 78.0282 46.6957 70.3743C45.3975 65.1408 44.0402 57.5975 45.357 52.5145C46.6001 47.7113 47.6814 43.5442 51.2895 39.4615C52.1574 38.4831 59.2816 31.679 67.5348 30.5609C71.3377 30.0498 74.7288 34.9194 79.3262 35.9675C84.6113 37.1704 87.6382 37.8582 90.5952 40.1199C95.5936 43.9375 97.0021 49.6458 98.3078 54.9493C99.3303 59.0981 100.654 64.4641 98.9 70.9666Z" fill="#2F2E41"/>
<mask id="path-6-inside-1_776_2313" fill="white">
<path d="M119.497 20.5026C106.276 7.28157 88.6974 0 70 0C51.3026 0 33.7237 7.28157 20.5026 20.5026C7.28157 33.7237 0 51.3026 0 70C0 87.0658 6.06579 103.2 17.1816 115.939C18.2421 117.158 19.35 118.345 20.5026 119.497C22.2895 121.284 24.1579 122.966 26.0974 124.529C26.1053 124.537 26.1105 124.542 26.1184 124.547C38.5158 134.561 53.8395 140 70 140C88.6974 140 106.276 132.718 119.497 119.497C132.718 106.276 140 88.6974 140 70C140 51.3026 132.718 33.7237 119.497 20.5026ZM115.511 122.447C111.018 126.355 106.018 129.692 100.626 132.35C98.7342 133.284 96.7947 134.134 94.8105 134.895C87.1026 137.853 78.7368 139.474 70 139.474C61.5684 139.474 53.4842 137.963 46.0026 135.2C42.9316 134.068 39.9632 132.724 37.1132 131.184C36.6947 130.958 36.2789 130.729 35.8658 130.495C33.6921 129.263 31.5895 127.918 29.5711 126.466C25.0605 123.229 20.9526 119.466 17.3421 115.266C6.8658 103.097 0.526316 87.2763 0.526316 70C0.526316 31.6921 31.6921 0.526316 70 0.526316C108.308 0.526316 139.474 31.6921 139.474 70C139.474 90.9158 130.184 109.703 115.511 122.447Z"/>
</mask>
<path d="M119.497 20.5026L119.992 20.0077L119.992 20.0077L119.497 20.5026ZM20.5026 20.5026L20.0077 20.0077L20.0077 20.0077L20.5026 20.5026ZM17.1816 115.939L17.7096 115.48L17.709 115.479L17.1816 115.939ZM20.5026 119.497L20.0076 119.992L20.0077 119.992L20.5026 119.497ZM26.0974 124.529L26.5923 124.034L26.5658 124.007L26.5366 123.984L26.0974 124.529ZM26.1184 124.547L26.5583 124.003L26.533 123.982L26.5059 123.964L26.1184 124.547ZM119.497 119.497L119.992 119.992L119.992 119.992L119.497 119.497ZM115.511 122.447L115.052 121.919L115.051 121.919L115.511 122.447ZM100.626 132.35L100.317 131.722L100.316 131.722L100.626 132.35ZM94.8105 134.895L94.56 134.241L94.5597 134.241L94.8105 134.895ZM46.0026 135.2L46.2452 134.543L46.2447 134.543L46.0026 135.2ZM37.1132 131.184L36.7802 131.8L36.7805 131.8L37.1132 131.184ZM35.8658 130.495L36.211 129.886L36.2109 129.886L35.8658 130.495ZM29.5711 126.466L29.9799 125.898L29.9792 125.897L29.5711 126.466ZM17.3421 115.266L17.8729 114.809L17.8726 114.809L17.3421 115.266ZM119.992 20.0077C106.64 6.65533 88.883 -0.7 70 -0.7V0.7C88.5117 0.7 105.913 7.90782 119.002 20.9976L119.992 20.0077ZM70 -0.7C51.117 -0.7 33.36 6.65533 20.0077 20.0077L20.9976 20.9976C34.0874 7.90782 51.4883 0.7 70 0.7V-0.7ZM20.0077 20.0077C6.65533 33.36 -0.7 51.117 -0.7 70H0.7C0.7 51.4883 7.90782 34.0874 20.9976 20.9976L20.0077 20.0077ZM-0.7 70C-0.7 87.2346 5.42684 103.532 16.6541 116.4L17.709 115.479C6.70473 102.868 0.7 86.8969 0.7 70H-0.7ZM16.6536 116.399C17.7248 117.63 18.8437 118.828 20.0076 119.992L20.9976 119.002C19.8563 117.861 18.7594 116.686 17.7096 115.48L16.6536 116.399ZM20.0077 119.992C21.8117 121.796 23.6987 123.495 25.6581 125.074L26.5366 123.984C24.6171 122.437 22.7672 120.772 20.9976 119.002L20.0077 119.992ZM25.6024 125.024C25.6045 125.026 25.6563 125.081 25.7309 125.13L26.5059 123.964C26.5647 124.003 26.606 124.048 26.5923 124.034L25.6024 125.024ZM25.6786 125.092C38.2008 135.206 53.6799 140.7 70 140.7V139.3C53.9991 139.3 38.8307 133.915 26.5583 124.003L25.6786 125.092ZM70 140.7C88.883 140.7 106.64 133.345 119.992 119.992L119.002 119.002C105.913 132.092 88.5117 139.3 70 139.3V140.7ZM119.992 119.992C133.345 106.64 140.7 88.883 140.7 70H139.3C139.3 88.5117 132.092 105.913 119.002 119.002L119.992 119.992ZM140.7 70C140.7 51.117 133.345 33.36 119.992 20.0077L119.002 20.9976C132.092 34.0874 139.3 51.4883 139.3 70H140.7ZM115.051 121.919C110.604 125.788 105.654 129.091 100.317 131.722L100.936 132.978C106.382 130.293 111.433 126.923 115.97 122.975L115.051 121.919ZM100.316 131.722C98.4435 132.647 96.5238 133.488 94.56 134.241L95.0611 135.548C97.0657 134.78 99.025 133.921 100.936 132.978L100.316 131.722ZM94.5597 134.241C86.9305 137.169 78.6497 138.774 70 138.774V140.174C78.824 140.174 87.2747 138.536 95.0613 135.548L94.5597 134.241ZM70 138.774C61.6526 138.774 53.6504 137.278 46.2452 134.543L45.7601 135.857C53.318 138.648 61.4843 140.174 70 140.174V138.774ZM46.2447 134.543C43.2051 133.423 40.267 132.092 37.4459 130.568L36.7805 131.8C39.6593 133.355 42.658 134.714 45.7606 135.857L46.2447 134.543ZM37.4462 130.568C37.0308 130.344 36.6192 130.117 36.211 129.886L35.5206 131.104C35.9387 131.341 36.3587 131.572 36.7802 131.8L37.4462 130.568ZM36.2109 129.886C34.0589 128.666 31.9775 127.335 29.9799 125.898L29.1622 127.034C31.2014 128.502 33.3254 129.86 35.5207 131.104L36.2109 129.886ZM29.9792 125.897C25.5138 122.693 21.4471 118.967 17.8729 114.809L16.8113 115.722C20.4581 119.964 24.6072 123.765 29.1629 127.035L29.9792 125.897ZM17.8726 114.809C7.50111 102.762 1.22632 87.1019 1.22632 70H-0.173684C-0.173684 87.4508 6.23048 103.432 16.8116 115.723L17.8726 114.809ZM1.22632 70C1.22632 32.0787 32.0787 1.22632 70 1.22632V-0.173684C31.3055 -0.173684 -0.173684 31.3055 -0.173684 70H1.22632ZM70 1.22632C107.921 1.22632 138.774 32.0787 138.774 70H140.174C140.174 31.3055 108.694 -0.173684 70 -0.173684V1.22632ZM138.774 70C138.774 90.704 129.579 109.301 115.052 121.919L115.97 122.976C130.789 110.104 140.174 91.1276 140.174 70H138.774Z" fill="#CACACA" mask="url(#path-6-inside-1_776_2313)"/>
</svg>
