<svg width="140" height="141" viewBox="0 0 140 141" fill="none" xmlns="http://www.w3.org/2000/svg">
<circle cx="70" cy="70" r="70" fill="#CACACA" fill-opacity="0.3"/>
<path d="M71.9285 91.438C84.4783 91.438 94.6519 81.2644 94.6519 68.7146C94.6519 56.1648 84.4783 45.9912 71.9285 45.9912C59.3787 45.9912 49.2051 56.1648 49.2051 68.7146C49.2051 81.2644 59.3787 91.438 71.9285 91.438Z" fill="#DEA5AD"/>
<path d="M53.1211 96.5258L57.8579 84.4205L82.3316 80.7363L84.9611 107.533L60.2243 108.059L53.1211 96.5258Z" fill="#DEA5AD"/>
<path d="M94.8707 72.9073C94.5758 74.0888 93.9797 76.9019 93.0487 76.9158C92.2881 76.9269 91.5601 64.7225 92.3199 62.7038C93.1926 60.3846 90.8991 57.451 89.1714 55.945C86.065 53.2373 79.1696 59.0515 72.1579 56.4176C71.9721 56.3479 72.0091 56.3558 69.795 55.4724C62.9819 52.7541 62.6237 52.6756 62.2334 52.6369C58.9307 52.3101 54.9 55.0128 53.2541 58.308C51.5431 61.7334 52.9727 64.6714 51.3637 72.9585C51.1762 73.9245 50.8818 75.3012 50.4185 75.3215C49.5716 75.3584 48.7447 70.835 48.5281 69.6503C47.6208 64.6867 46.746 59.9012 48.5281 54.5272C48.7225 53.9411 49.9206 51.7655 52.3089 47.4383C55.7495 41.2045 57.48 38.0759 57.98 37.5138C61.5665 33.4805 68.0947 29.8013 73.5757 31.37C76.346 32.1629 75.8493 33.4376 79.2469 34.6782C85.3017 36.8889 90.5639 34.1853 91.5344 36.096C92.0485 37.1081 90.6101 37.9425 90.5892 39.8768C90.5534 43.1955 94.7508 44.1546 97.2055 47.4383C98.5251 49.2036 100.784 49.2225 94.8707 72.9073Z" fill="#2F2E41"/>
<path d="M123 115C122.084 116.029 120.484 118.016 119.5 119C106.279 132.221 89.3737 140.049 70.6763 140.049C54.5158 140.049 39.1921 134.609 26.7947 124.596C26.7868 124.591 26.7816 124.586 26.7737 124.578C25.129 123.252 23.5369 121.841 22 120.352C22.0289 120.12 22.0605 119.891 22.0947 119.665C22.3105 118.138 22.55 116.683 22.8184 115.344C25.0158 104.365 53.929 92.8385 54.6816 92.5383C54.6921 92.5358 54.6974 92.5332 54.6974 92.5332C54.6974 92.5332 58.4185 106.249 74.3632 106.073C85.2237 105.954 83.1184 92.5332 83.1184 92.5332C83.1184 92.5332 83.25 92.5594 83.4974 92.6121C86.6342 93.278 108.413 98.0621 117.005 104.591C119.624 106.581 121.15 108.448 122.5 113.5C122.558 113.716 122.942 114.782 123 115Z" fill="#00BFA6"/>
<mask id="path-6-inside-1_776_2314" fill="white">
<path d="M119.497 20.5026C106.276 7.28157 88.6974 0 70 0C51.3026 0 33.7237 7.28157 20.5026 20.5026C7.28157 33.7237 0 51.3026 0 70C0 87.0658 6.06579 103.2 17.1816 115.939C18.2421 117.158 19.35 118.345 20.5026 119.497C22.2895 121.284 24.1579 122.966 26.0974 124.529C26.1053 124.537 26.1105 124.542 26.1184 124.547C38.5158 134.561 53.8395 140 70 140C88.6974 140 106.276 132.718 119.497 119.497C132.718 106.276 140 88.6974 140 70C140 51.3026 132.718 33.7237 119.497 20.5026ZM115.511 122.447C111.018 126.355 106.018 129.692 100.626 132.35C98.7342 133.284 96.7947 134.134 94.8105 134.895C87.1026 137.853 78.7368 139.474 70 139.474C61.5684 139.474 53.4842 137.963 46.0026 135.2C42.9316 134.068 39.9632 132.724 37.1132 131.184C36.6947 130.958 36.2789 130.729 35.8658 130.495C33.6921 129.263 31.5895 127.918 29.5711 126.466C25.0605 123.229 20.9526 119.466 17.3421 115.266C6.8658 103.097 0.526316 87.2763 0.526316 70C0.526316 31.6921 31.6921 0.526316 70 0.526316C108.308 0.526316 139.474 31.6921 139.474 70C139.474 90.9158 130.184 109.703 115.511 122.447Z"/>
</mask>
<path d="M119.497 20.5026L119.992 20.0077L119.992 20.0077L119.497 20.5026ZM20.5026 20.5026L20.0077 20.0077L20.0077 20.0077L20.5026 20.5026ZM17.1816 115.939L17.7096 115.48L17.709 115.479L17.1816 115.939ZM20.5026 119.497L20.0076 119.992L20.0077 119.992L20.5026 119.497ZM26.0974 124.529L26.5923 124.034L26.5658 124.007L26.5366 123.984L26.0974 124.529ZM26.1184 124.547L26.5583 124.003L26.533 123.982L26.5059 123.964L26.1184 124.547ZM119.497 119.497L119.992 119.992L119.992 119.992L119.497 119.497ZM115.511 122.447L115.052 121.919L115.051 121.919L115.511 122.447ZM100.626 132.35L100.317 131.722L100.316 131.722L100.626 132.35ZM94.8105 134.895L94.56 134.241L94.5597 134.241L94.8105 134.895ZM46.0026 135.2L46.2452 134.543L46.2447 134.543L46.0026 135.2ZM37.1132 131.184L36.7802 131.8L36.7805 131.8L37.1132 131.184ZM35.8658 130.495L36.211 129.886L36.2109 129.886L35.8658 130.495ZM29.5711 126.466L29.9799 125.898L29.9792 125.897L29.5711 126.466ZM17.3421 115.266L17.8729 114.809L17.8726 114.809L17.3421 115.266ZM119.992 20.0077C106.64 6.65533 88.883 -0.7 70 -0.7V0.7C88.5117 0.7 105.913 7.90782 119.002 20.9976L119.992 20.0077ZM70 -0.7C51.117 -0.7 33.36 6.65533 20.0077 20.0077L20.9976 20.9976C34.0874 7.90782 51.4883 0.7 70 0.7V-0.7ZM20.0077 20.0077C6.65533 33.36 -0.7 51.117 -0.7 70H0.7C0.7 51.4883 7.90782 34.0874 20.9976 20.9976L20.0077 20.0077ZM-0.7 70C-0.7 87.2346 5.42684 103.532 16.6541 116.4L17.709 115.479C6.70473 102.868 0.7 86.8969 0.7 70H-0.7ZM16.6536 116.399C17.7248 117.63 18.8437 118.828 20.0076 119.992L20.9976 119.002C19.8563 117.861 18.7594 116.686 17.7096 115.48L16.6536 116.399ZM20.0077 119.992C21.8117 121.796 23.6987 123.495 25.6581 125.074L26.5366 123.984C24.6171 122.437 22.7672 120.772 20.9976 119.002L20.0077 119.992ZM25.6024 125.024C25.6045 125.026 25.6563 125.081 25.7309 125.13L26.5059 123.964C26.5647 124.003 26.606 124.048 26.5923 124.034L25.6024 125.024ZM25.6786 125.092C38.2008 135.206 53.6799 140.7 70 140.7V139.3C53.9991 139.3 38.8307 133.915 26.5583 124.003L25.6786 125.092ZM70 140.7C88.883 140.7 106.64 133.345 119.992 119.992L119.002 119.002C105.913 132.092 88.5117 139.3 70 139.3V140.7ZM119.992 119.992C133.345 106.64 140.7 88.883 140.7 70H139.3C139.3 88.5117 132.092 105.913 119.002 119.002L119.992 119.992ZM140.7 70C140.7 51.117 133.345 33.36 119.992 20.0077L119.002 20.9976C132.092 34.0874 139.3 51.4883 139.3 70H140.7ZM115.051 121.919C110.604 125.788 105.654 129.091 100.317 131.722L100.936 132.978C106.382 130.293 111.433 126.923 115.97 122.975L115.051 121.919ZM100.316 131.722C98.4435 132.647 96.5238 133.488 94.56 134.241L95.0611 135.548C97.0657 134.78 99.025 133.921 100.936 132.978L100.316 131.722ZM94.5597 134.241C86.9305 137.169 78.6497 138.774 70 138.774V140.174C78.824 140.174 87.2747 138.536 95.0613 135.548L94.5597 134.241ZM70 138.774C61.6526 138.774 53.6504 137.278 46.2452 134.543L45.7601 135.857C53.318 138.648 61.4843 140.174 70 140.174V138.774ZM46.2447 134.543C43.2051 133.423 40.267 132.092 37.4459 130.568L36.7805 131.8C39.6593 133.355 42.658 134.714 45.7606 135.857L46.2447 134.543ZM37.4462 130.568C37.0308 130.344 36.6192 130.117 36.211 129.886L35.5206 131.104C35.9387 131.341 36.3587 131.572 36.7802 131.8L37.4462 130.568ZM36.2109 129.886C34.0589 128.666 31.9775 127.335 29.9799 125.898L29.1622 127.034C31.2014 128.502 33.3254 129.86 35.5207 131.104L36.2109 129.886ZM29.9792 125.897C25.5138 122.693 21.4471 118.967 17.8729 114.809L16.8113 115.722C20.4581 119.964 24.6072 123.765 29.1629 127.035L29.9792 125.897ZM17.8726 114.809C7.50111 102.762 1.22632 87.1019 1.22632 70H-0.173684C-0.173684 87.4508 6.23048 103.432 16.8116 115.723L17.8726 114.809ZM1.22632 70C1.22632 32.0787 32.0787 1.22632 70 1.22632V-0.173684C31.3055 -0.173684 -0.173684 31.3055 -0.173684 70H1.22632ZM70 1.22632C107.921 1.22632 138.774 32.0787 138.774 70H140.174C140.174 31.3055 108.694 -0.173684 70 -0.173684V1.22632ZM138.774 70C138.774 90.704 129.579 109.301 115.052 121.919L115.97 122.976C130.789 110.104 140.174 91.1276 140.174 70H138.774Z" fill="#CACACA" mask="url(#path-6-inside-1_776_2314)"/>
</svg>
