<svg width="197" height="214" viewBox="0 0 197 214" fill="none" xmlns="http://www.w3.org/2000/svg">
<g opacity="0.1" filter="url(#filter0_d_515_372)">
<path d="M65.973 45.2524C64.2394 52.8597 62.3356 60.8142 57.2277 66.6381C52.1044 72.5093 44.5046 75.3344 38.112 79.722C31.5492 84.2201 26.0854 90.5806 23.2994 98.1405C20.5133 105.7 20.5907 114.444 24.1661 121.641C27.2618 127.859 32.7875 132.815 34.6759 139.523C35.6819 143.106 35.5581 146.925 36.5642 150.508C39.4277 160.798 50.5721 166.275 60.9271 168.011C71.282 169.747 82.1633 169.084 91.9301 173.014C97.688 175.334 103.492 179.264 109.513 177.844C113.847 176.818 117.129 173.203 121.215 171.404C127.081 168.847 133.814 170.315 140.16 169.542C148.859 168.484 156.908 162.85 160.994 154.943C164.368 148.409 165.049 140.833 166.737 133.652C169.337 122.651 174.414 112.329 176.488 101.202C178.562 90.0755 176.89 77.1336 168.315 69.9525C165.204 67.3483 161.428 65.7069 158.285 63.1659C145.469 52.8282 146.955 32.0107 136.91 18.8636C130.1 9.94636 118.615 5.74815 107.532 5.5114C98.6941 5.32201 89.6702 7.48425 82.349 12.5505C71.0034 20.4103 68.8984 32.5473 66.0039 45.2366L65.973 45.2524Z" fill="#F6F6F6"/>
</g>
<path d="M104.916 87.0768C104.808 89.2706 104.529 91.8274 104.127 94.6209C103.415 99.5925 102.285 105.243 101.078 110.719C98.276 123.33 95.01 134.962 95.01 134.962C94.8862 141.78 93.8182 149.75 92.518 157.105C92.3942 157.91 92.2394 158.699 92.1001 159.472C91.6203 162.013 91.1405 164.444 90.6606 166.701C88.9425 174.734 87.3792 180.511 87.3792 180.511L79.8413 179.059C79.4853 174.687 79.346 170.536 79.3615 166.638C79.3615 164.207 79.4234 161.887 79.5162 159.662C79.5627 158.494 79.6401 157.357 79.702 156.268C80.5842 142.979 82.8441 134.188 82.8596 132.421C82.9215 123.535 83.4323 115.786 84.1288 109.157C86.0636 90.9278 89.5307 81.4423 89.5307 81.4423C94.4064 70.0156 101.712 70.8047 104.127 79.2169C104.746 81.3634 105.04 83.9991 104.901 87.061L104.916 87.0768Z" fill="#F5A784"/>
<path d="M128.907 169.131C128.861 172.288 128.721 175.618 128.443 179.059L120.905 180.511C120.905 180.511 119.574 175.539 118.01 168.405C117.438 165.785 116.834 162.881 116.261 159.819C116.107 158.936 115.936 158.052 115.782 157.168C114.481 149.797 113.398 141.78 113.274 134.946C113.274 134.946 109.962 123.219 107.176 110.561C105.968 105.132 104.854 99.5135 104.142 94.5893C103.739 91.7958 103.461 89.2389 103.368 87.0451C103.229 83.9833 103.538 81.3476 104.157 79.2011C106.603 70.7731 113.893 69.9997 118.753 81.4265C118.753 81.4265 122.19 90.8646 124.124 109.015C124.836 115.644 125.347 123.456 125.424 132.405C125.44 134.157 127.653 142.79 128.567 155.89C128.644 156.979 128.706 158.099 128.752 159.267C128.907 162.345 128.969 165.643 128.907 169.116V169.131Z" fill="#F5A784"/>
<path d="M128.552 155.921C124.574 156.552 120.24 156.963 115.782 157.184C114.482 149.813 113.399 141.796 113.275 134.962C113.275 134.962 109.962 123.235 107.176 110.577C105.969 105.148 104.855 99.5293 104.143 94.6051C103.431 99.5608 102.301 105.227 101.093 110.703C98.2918 123.314 95.026 134.946 95.026 134.946C94.9021 141.764 93.8341 149.734 92.5339 157.089C87.8285 156.868 83.4482 156.568 79.7334 156.253C80.6157 142.963 82.8755 134.172 82.891 132.405C82.9529 123.519 83.4636 115.77 84.1602 109.141C86.095 90.9119 89.5621 81.4264 89.5621 81.4264C94.4378 69.9997 101.744 70.7889 104.158 79.2011C106 72.7775 110.705 70.8046 114.993 75.3185C116.324 76.7232 117.609 78.7276 118.77 81.4264C118.77 81.4264 119.869 84.4094 121.153 90.2648C122.159 94.7944 123.289 101.076 124.141 109.015C124.853 115.644 125.363 123.456 125.441 132.405C125.456 134.157 127.67 142.79 128.583 155.89L128.552 155.921Z" fill="url(#paint0_linear_515_372)"/>
<path d="M121.137 90.2964C116.896 85.5931 98.3066 84.3621 98.3066 84.3621L114.977 75.3501C116.308 76.7548 117.593 78.7592 118.753 81.458C118.753 81.458 119.852 84.441 121.137 90.2964Z" fill="#222425" fill-opacity="0.5"/>
<path d="M88.3696 188.276C88.3696 188.355 88.3696 188.434 88.3542 188.513C88.1065 192.064 85.2585 191.527 81.0484 191.59C77.6896 191.638 75.8941 189.681 76.0953 187.613C76.1418 187.029 76.3585 186.445 76.73 185.877C77.8908 184.172 78.5254 182.089 78.804 180.905C78.9898 180.116 79.4232 179.39 80.0578 178.885C82.7046 176.707 85.243 178.38 86.5277 179.58C87.0849 180.1 87.4719 180.779 87.6421 181.537C87.9672 182.957 88.416 185.64 88.3696 188.276Z" fill="#222425"/>
<path d="M127.267 191.59C122.948 191.527 120.007 192.095 119.945 188.276C119.945 188.165 119.945 188.055 119.945 187.944C119.884 185.53 120.317 183.115 120.626 181.71C120.812 180.842 121.246 180.069 121.896 179.469C123.149 178.333 125.44 176.897 127.87 178.57C128.706 179.153 129.279 180.037 129.542 181.032C129.852 182.247 130.471 184.22 131.585 185.845C131.802 186.161 131.957 186.477 132.065 186.808C132.839 189.144 131.059 191.622 127.282 191.559L127.267 191.59Z" fill="#222425"/>
<path d="M111.913 25.9503C112.362 25.4611 112.578 24.8298 112.671 24.23C112.826 23.2357 112.764 22.1782 113.197 21.2628C113.414 20.7894 113.77 20.379 113.894 19.874C114.002 19.3689 113.848 18.8007 113.492 18.4219C113.228 18.1536 112.857 17.9642 112.733 17.6012C112.656 17.3803 112.702 17.1435 112.687 16.9226C112.64 16.2281 112.129 15.6442 111.526 15.3127C110.922 14.9971 110.241 14.8708 109.56 14.7446C108.894 14.6025 108.198 14.4289 107.656 14.0186C107.409 13.8292 107.192 13.5766 106.913 13.4188C106.433 13.1505 105.845 13.1978 105.288 13.2925C104.267 13.4662 103.26 13.7818 102.301 14.1922C101.945 14.35 101.589 14.5236 101.202 14.5867C100.629 14.6656 100.025 14.4763 99.4527 14.5867C98.5705 14.7603 97.9668 15.581 97.5335 16.386C97.4096 16.6227 97.2858 16.8752 97.0691 17.0173C96.8369 17.1751 96.5274 17.2067 96.2642 17.2856C95.5367 17.5223 95.0415 18.2326 94.8402 18.9743C94.6235 19.7635 94.7164 20.5368 94.7938 21.3418C94.8712 22.1151 94.8557 22.8885 95.0569 23.6618C96.6202 30.0223 97.0536 28.2073 97.0536 28.2073C98.6169 28.0652 100.18 27.8916 101.744 27.718C103.849 27.4813 105.954 27.2445 108.043 26.9289C108.879 26.8026 109.715 26.629 110.535 26.5027C111.092 26.408 111.495 26.3922 111.913 25.9661V25.9503Z" fill="#222425"/>
<path d="M96.6509 25.4453C96.6509 25.4453 95.2578 23.8512 93.9731 25.5242C92.6884 27.1972 95.0566 30.2748 96.8057 30.3537C96.8057 30.3537 96.883 26.1397 96.6509 25.4453Z" fill="#E0855C"/>
<path d="M122.175 43.6902C121.494 45.4894 119.281 51.5658 118.104 57.3896C117.98 57.9894 117.887 58.5575 117.779 59.1415C117.686 59.6623 117.624 60.1358 117.562 60.5935C117.532 60.8776 117.485 61.2406 117.439 61.6825C116.959 66.3858 116.061 79.5644 115.891 81.8056C115.891 82.0107 115.875 82.1212 115.875 82.1212C103.864 85.9091 91.1875 82.8946 91.1875 82.8946C91.1875 82.8946 91.172 82.6578 91.0946 82.2001C90.816 80.0221 88.2156 56.7267 88.1227 55.7956C87.581 50.2558 87.194 45.158 87.1631 41.9856C87.1631 41.5279 87.5655 41.2596 88.1692 41.086C89.1443 40.8019 90.5219 40.7388 91.6053 40.5652C93.8652 40.1706 96.2953 39.9812 97.7038 39.9181C97.8895 39.9181 98.0598 39.9023 98.2146 39.8865C98.323 39.8707 98.4313 39.8707 98.5241 39.8707C98.7718 39.8707 98.8957 39.8707 98.8957 39.8707L99.2826 33.5734C99.4838 33.6208 99.685 33.6523 99.8862 33.6523C100.289 33.7155 100.691 33.747 101.063 33.747C101.573 33.747 102.053 33.7312 102.502 33.6681C102.734 33.6365 102.951 33.6208 103.168 33.5734C103.477 33.5261 103.787 33.4629 104.081 33.3998C104.561 33.2735 105.041 33.1315 105.474 32.9579C105.613 32.9105 105.753 32.879 105.876 32.8001C105.923 32.8001 105.954 32.7843 105.985 32.7527C106.093 32.7054 106.201 32.658 106.294 32.6264C106.944 32.3424 107.486 32.0109 107.935 31.7268C108.214 31.5374 108.477 31.3638 108.662 31.2218C108.74 31.1586 108.771 31.1429 108.786 31.1113C108.895 31.0324 108.987 30.9693 109.065 30.8903C109.158 30.8114 109.22 30.7641 109.235 30.7483C109.204 30.9692 109.189 31.0639 109.173 31.1744C109.049 32.2003 108.972 33.5418 108.957 34.8676C108.926 35.7672 108.926 36.6668 108.91 37.456C108.91 38.8133 108.941 39.7918 108.941 39.7918C109.189 39.7918 109.421 39.7918 109.653 39.7918C109.699 39.7918 109.761 39.7918 109.808 39.7918C109.839 39.776 109.885 39.776 109.916 39.7918C111.247 39.8076 112.517 39.9339 113.677 40.1233C117.005 40.6599 119.265 41.2754 120.596 41.8278C120.937 41.9698 121.184 42.0961 121.401 42.2224C121.695 42.396 122.314 43.3903 122.206 43.706L122.175 43.6902Z" fill="#F5A784"/>
<path d="M109.236 30.7327C107.889 37.9927 100.769 37.7244 99.0664 36.8248L99.2676 33.5578C105.165 34.5994 109.236 30.7484 109.236 30.7484V30.7327Z" fill="#E0855C"/>
<path d="M96.8061 20.6946C95.9393 21.6731 95.9393 23.788 95.9238 26.1239C95.9238 33.2261 98.0598 35.3726 101.62 35.6409C105.18 35.925 108.848 34.4098 109.421 27.8126C109.7 24.514 110.025 21.468 108.802 20.0791C106.991 18.0115 99.4374 17.6959 96.7906 20.6788L96.8061 20.6946Z" fill="#F5A784"/>
<path d="M108.909 26.8973C108.909 26.8973 109.9 23.9301 111.664 25.4295C113.429 26.9288 111.184 31.4427 108.553 31.1902C108.553 31.1902 108.089 27.9232 108.894 26.8973H108.909Z" fill="#F5A784"/>
<path d="M110.922 26.7869C110.55 26.8658 110.163 27.2446 109.9 27.5129C109.622 27.797 109.297 28.1442 109.157 28.523C109.111 28.6493 109.281 28.7124 109.358 28.6335C109.575 28.4125 109.745 28.16 109.947 27.9233C110.101 28.0811 110.256 28.2389 110.457 28.3178C110.612 28.3652 110.721 28.1758 110.659 28.0337C110.566 27.8601 110.396 27.7497 110.225 27.6392C110.488 27.4182 110.813 27.2446 111.03 26.9763C111.108 26.8816 111.03 26.7553 110.906 26.7711L110.922 26.7869Z" fill="#E0855C"/>
<path d="M98.9877 25.8713C98.9877 25.8713 98.3995 26.1238 98.446 25.0348C98.4924 24.0563 98.9258 24.1826 98.9258 24.1826C98.9258 24.1826 99.3437 24.1668 99.3128 25.019C99.2818 25.8713 98.9877 25.8871 98.9877 25.8871V25.8713Z" fill="#222425"/>
<path d="M105.072 25.682C105.072 25.682 104.484 25.9345 104.53 24.8455C104.576 23.867 105.01 23.9932 105.01 23.9932C105.01 23.9932 105.428 23.9774 105.397 24.8297C105.366 25.682 105.072 25.6978 105.072 25.6978V25.682Z" fill="#222425"/>
<path d="M101.806 28.6807C101.496 28.6491 100.799 28.8543 100.66 28.5229C100.536 28.2546 100.97 26.5816 101.032 26.2975C101.248 25.2716 101.496 24.5772 101.651 23.3461C101.651 23.2988 101.573 23.2672 101.542 23.3146C100.892 24.956 100.691 26.9762 100.304 28.7123C100.289 28.807 100.351 28.9017 100.459 28.9017C100.908 28.8859 101.341 28.9648 101.79 28.949C101.945 28.949 101.976 28.6965 101.821 28.6807H101.806Z" fill="#E0855C"/>
<path d="M100.18 22.6202C99.8237 22.5255 99.4368 22.6202 99.0653 22.5729C98.6783 22.5413 98.2914 22.3835 97.8889 22.415C97.7032 22.4308 97.5794 22.6676 97.7342 22.8096C98.245 23.3304 99.6225 23.504 100.242 23.1568C100.458 23.0306 100.412 22.6833 100.164 22.6202H100.18Z" fill="#222425"/>
<path d="M106.711 21.7678C106.123 22.0203 105.674 22.3044 105.024 22.3359C104.637 22.3517 104.173 22.257 103.863 22.5253C103.817 22.5727 103.802 22.6674 103.833 22.7147C104.436 23.6143 106.417 22.5569 106.882 21.9256C106.975 21.8151 106.804 21.7046 106.711 21.752V21.7678Z" fill="#222425"/>
<path d="M104.112 30.5272C103.492 30.3693 102.78 30.4483 102.146 30.4798C101.697 30.4798 101.062 30.4009 100.737 30.7797C101.093 31.1269 101.697 30.9691 102.146 30.9691C102.796 30.9691 103.477 31.0322 104.112 30.906C104.297 30.8744 104.282 30.5745 104.112 30.5272Z" fill="#E0855C"/>
<path d="M157.108 112.708H48.5276C47.9703 112.708 47.5215 112.25 47.5215 111.682C47.5215 111.114 47.9703 110.656 48.5276 110.656H157.108C157.665 110.656 158.114 111.114 158.114 111.682C158.114 112.25 157.665 112.708 157.108 112.708Z" fill="#222425"/>
<path d="M51.9642 116.985C51.02 116.985 50.2461 116.196 50.2461 115.233V108.147C50.2461 107.184 51.02 106.395 51.9642 106.395C52.9084 106.395 53.6823 107.184 53.6823 108.147V115.233C53.6823 116.196 52.9084 116.985 51.9642 116.985Z" fill="#222425"/>
<path d="M55.3998 123.172C54.4556 123.172 53.6816 122.383 53.6816 121.42V101.944C53.6816 100.981 54.4556 100.192 55.3998 100.192C56.3439 100.192 57.1178 100.981 57.1178 101.944V121.42C57.1178 122.383 56.3439 123.172 55.3998 123.172Z" fill="#0E0E0E"/>
<path d="M58.8529 126.123C57.9087 126.123 57.1348 125.334 57.1348 124.371V99.5923C57.1348 98.6296 57.9087 97.8405 58.8529 97.8405C59.7971 97.8405 60.5709 98.6296 60.5709 99.5923V124.371C60.5709 125.334 59.7971 126.123 58.8529 126.123Z" fill="#222425"/>
<path d="M152.169 116.985C153.113 116.985 153.887 116.196 153.887 115.233V108.147C153.887 107.184 153.113 106.395 152.169 106.395C151.225 106.395 150.451 107.184 150.451 108.147V115.233C150.451 116.196 151.225 116.985 152.169 116.985Z" fill="#222425"/>
<path d="M148.718 123.172C149.662 123.172 150.436 122.383 150.436 121.42V101.944C150.436 100.981 149.662 100.192 148.718 100.192C147.774 100.192 147 100.981 147 101.944V121.42C147 122.383 147.774 123.172 148.718 123.172Z" fill="#0E0E0E"/>
<path d="M145.282 126.123C146.226 126.123 147 125.334 147 124.371V99.5923C147 98.6296 146.226 97.8405 145.282 97.8405C144.337 97.8405 143.563 98.6296 143.563 99.5923V124.371C143.563 125.334 144.337 126.123 145.282 126.123Z" fill="#222425"/>
<path d="M93.8181 53.9014C93.2764 56.1741 92.2238 58.289 91.2023 60.3881C90.7534 61.3351 88.9424 65.3439 88.865 65.5017C86.048 71.8464 82.0701 81.1109 81.776 82.1999C80.8318 85.7668 78.9434 106.442 78.928 106.458C76.9932 109.425 73.3094 107.989 73.3094 107.989C73.3094 107.989 73.232 107.358 73.1546 106.284C72.7367 101.692 71.746 88.7655 72.8914 81.1424C73.2165 79.0275 74.4857 73.8981 75.9871 68.0901C77.2254 63.2921 77.7671 58.8729 79.2375 54.2486C80.3365 50.7764 81.9617 47.1779 84.7478 43.248C85.2895 42.4904 87.2243 41.1647 88.1685 41.07C88.7412 41.0069 88.9889 41.8276 89.4687 42.0327C90.8153 42.6483 91.9607 43.7531 92.6108 45.1104C93.8955 47.7619 94.4837 50.9816 93.8181 53.8856V53.9014Z" fill="#F5A784"/>
<path d="M72.9374 110.246C72.9993 109.536 73.0767 108.825 73.0922 108.147C73.1231 107.058 73.1077 106.348 73.1077 106.348C74.0209 105.006 76.9153 104.675 78.1846 105.527C78.5715 105.779 78.8811 106.142 79.2061 106.474C79.8253 107.074 80.5372 107.547 81.1099 108.178C81.6826 108.81 82.116 109.678 81.9458 110.53C81.2028 110.672 80.5218 110.893 80.0265 111.509C79.4538 112.235 79.6859 112.897 79.4228 113.702C79.2061 114.334 78.4632 114.586 77.8131 114.697C75.8319 114.981 72.9993 115.091 72.8291 112.487C72.7826 111.761 72.8291 111.019 72.9064 110.277L72.9374 110.246Z" fill="#F5A784"/>
<path d="M134.882 106.3C134.79 107.373 134.728 108.005 134.728 108.005C134.728 108.005 131.044 109.441 129.093 106.474C129.093 106.458 127.19 85.7826 126.261 82.2157C126.106 81.616 124.899 78.6962 123.382 75.1608C121.788 71.4519 116.989 60.7512 116.835 60.4039C115.813 58.3048 114.745 56.2057 114.219 53.9172C113.553 51.0132 114.141 47.7935 115.426 45.142C116.076 43.7847 117.222 42.6799 118.568 42.0644C119.048 41.8434 119.574 41.6856 120.101 41.7329C120.271 41.7329 120.441 41.7803 120.596 41.8276C120.905 41.9223 121.153 42.0486 121.401 42.2222C121.788 42.4747 122.144 42.8061 122.469 43.1218C125.332 46.0416 127.143 49.7506 128.459 53.7278C130.038 58.4627 130.92 63.5605 132.096 68.1217C133.598 73.9298 134.851 79.0434 135.176 81.1741C136.337 88.7971 135.331 101.723 134.929 106.316L134.882 106.3Z" fill="#F5A784"/>
<path d="M135.037 110.246C134.991 109.473 134.96 108.746 134.929 108.147C134.898 107.058 134.914 106.332 134.914 106.332C134 104.99 131.106 104.659 129.837 105.511C129.45 105.764 129.14 106.127 128.815 106.458C128.196 107.058 127.484 107.531 126.911 108.163C126.339 108.794 125.905 109.662 126.076 110.514C126.076 110.577 127.856 110.988 128.103 111.24C128.691 111.84 128.242 112.377 128.242 113.055C128.242 114.018 128.908 114.349 129.728 114.507C130.317 114.618 130.889 114.728 131.477 114.823C132.406 114.965 133.397 115.044 134.217 114.57C134.341 114.491 134.465 114.413 134.558 114.286C134.635 114.176 134.681 114.05 134.712 113.907C135.053 112.661 135.146 111.508 135.068 110.23L135.037 110.246Z" fill="#F5A784"/>
<path d="M118.103 57.3735L118.954 82.0736C104.668 87.7554 89.2052 82.4523 89.2052 82.4523L88.8647 58.7782C88.7099 58.7308 88.5551 58.6993 88.4003 58.6519C87.7038 58.431 86.9608 58.1942 86.2024 57.8786C85.7535 57.705 85.3202 57.5156 84.8713 57.3104C82.9365 56.4265 80.9707 55.3375 79.2217 54.2643C80.3206 50.7921 81.9459 47.1936 84.7319 43.2637C85.2737 42.5061 87.2085 41.1804 88.1527 41.0857C89.1278 40.8016 90.5054 40.7385 91.5889 40.5649C93.8487 40.1703 96.2788 39.9809 97.6873 39.9178L103.321 54.1065C103.321 54.1065 107.562 45.9468 109.637 39.7915C109.683 39.7915 109.745 39.7915 109.791 39.7915C109.822 39.7757 109.869 39.7757 109.9 39.7915C111.231 39.8073 112.5 39.9335 113.661 40.1229C116.989 40.6596 119.249 41.2751 120.58 41.8275C120.889 41.9222 121.137 42.0484 121.385 42.222C121.772 42.4746 122.128 42.806 122.453 43.1217C125.316 46.0415 127.127 49.7504 128.443 53.7277C126.632 54.5957 124.558 55.3691 122.747 55.9846C120.177 56.8685 118.134 57.3893 118.134 57.3893L118.103 57.3735Z" fill="#222425"/>
<path d="M88.8654 50.6185V58.7782C88.7106 58.7309 88.5558 58.6993 88.4011 58.652C87.7045 58.431 86.9616 58.1943 86.2031 57.8786C87.72 54.3906 88.8654 50.6185 88.8654 50.6185Z" fill="#0E0E0E"/>
<path d="M84.9178 182.831C83.695 182.136 81.4042 181.6 80.1969 182.562C80.1195 182.626 80.1196 182.736 80.135 182.831C80.135 182.862 80.135 182.894 80.1505 182.925C80.166 183.052 80.3208 183.083 80.4136 183.036C80.4601 183.004 80.4756 183.036 80.522 183.004C80.8006 182.831 81.0947 182.752 81.4042 182.72C81.8067 182.689 82.2091 182.768 82.5961 182.831C83.339 182.973 84.051 183.241 84.8095 183.21C85.0107 183.21 85.0881 182.925 84.9178 182.831Z" fill="#C6C6C6"/>
<path d="M85.7058 185.056C85.1021 184.377 84.0496 184.267 83.1983 184.156C82.3934 184.062 81.2635 183.92 80.567 184.441C80.4432 184.535 80.3968 184.772 80.567 184.851C81.2481 185.167 82.0374 184.993 82.7804 185.088C83.6627 185.182 84.6068 185.656 85.5045 185.545C85.7522 185.514 85.876 185.261 85.7058 185.056Z" fill="#C6C6C6"/>
<path d="M127.359 181.978C126.152 180.968 123.072 181.284 122.081 182.547C121.927 182.752 122.004 183.146 122.313 183.115C123.103 183.036 123.83 182.641 124.635 182.562C125.456 182.468 126.26 182.783 127.065 182.689C127.375 182.657 127.653 182.231 127.359 181.978Z" fill="#C6C6C6"/>
<path d="M128.024 184.062C127.064 183.683 125.873 183.857 124.851 183.888C124.124 183.904 123.319 183.888 122.808 184.52C122.591 184.804 122.777 185.325 123.195 185.183C124.743 184.63 126.492 185.467 128.024 184.883C128.427 184.725 128.411 184.22 128.024 184.062Z" fill="#C6C6C6"/>
<path d="M66.0506 170.646C65.9887 170.536 65.9577 170.473 65.9267 170.425C65.6481 169.841 65.029 168.137 65.5862 165.012C65.6481 164.649 65.7255 164.254 65.8339 163.844C66.3137 161.934 66.9483 154.248 54.1942 154.122C41.4556 154.248 42.0902 161.95 42.57 163.844C42.6938 164.349 42.7867 164.807 42.8641 165.249C43.3594 168.232 42.7712 169.873 42.4771 170.441C42.4462 170.504 42.4152 170.552 42.3843 170.615C41.3008 172.635 40.6816 174.892 40.6816 177.291C40.6816 184.898 46.7337 191.069 54.1942 191.069C61.6547 191.069 67.7067 184.898 67.7067 177.291C67.7067 174.892 67.1031 172.635 66.0351 170.662L66.0506 170.646ZM61.4225 164.254C61.4225 164.254 61.3916 164.396 61.3761 164.46C61.2058 164.775 60.9892 165.028 60.726 165.186C59.8593 165.738 58.5281 165.533 56.8565 164.996C54.6431 164.302 53.3584 164.286 50.402 165.28C48.9316 165.77 48.0958 165.564 47.6314 165.233C47.3683 165.044 47.2135 164.823 47.1206 164.649C47.0432 164.46 46.9968 164.239 46.9504 164.002C46.873 163.528 46.8575 162.944 46.8884 162.266C47.1516 157.547 54.2097 158.036 54.2097 158.036C54.2097 158.036 61.2678 157.547 61.5309 162.266C61.5773 163.071 61.5309 163.734 61.4225 164.254Z" fill="url(#paint1_linear_515_372)"/>
<path d="M65.834 163.828C65.7257 164.239 65.6483 164.633 65.5864 164.996C63.9457 165.028 62.4598 164.649 61.4073 164.254C61.5311 163.734 61.562 163.071 61.5156 162.266C61.2525 157.547 54.1944 158.036 54.1944 158.036C54.1944 158.036 47.1363 157.547 46.8731 162.266C46.8422 162.944 46.8577 163.528 46.9351 164.002C45.5111 164.633 44.0561 164.996 42.8488 165.217C42.7714 164.775 42.6785 164.318 42.5547 163.813C42.0749 161.903 41.4403 154.217 54.1789 154.09C66.933 154.217 66.283 161.919 65.8186 163.813L65.834 163.828Z" fill="#222425" fill-opacity="0.5"/>
<path d="M49.5967 177.275C49.5967 174.687 51.6553 172.588 54.1937 172.588C56.7322 172.588 58.7908 174.687 58.7908 177.275C58.7908 179.864 56.7322 181.963 54.1937 181.963C51.6553 181.963 49.5967 179.864 49.5967 177.275Z" fill="#222425" fill-opacity="0.5"/>
<path d="M46.7029 170.284C44.7526 171.53 44.3502 174.829 44.6133 176.944C44.6597 177.291 45.186 177.449 45.2788 177.039C45.511 175.855 45.4646 174.64 45.7587 173.456C46.0218 172.398 46.5481 171.578 47.0743 170.647C47.1982 170.426 46.935 170.141 46.7183 170.284H46.7029Z" fill="#E8CEE5"/>
<path d="M63.7143 181.111C63.6834 180.858 63.3429 180.7 63.2036 180.968C62.7547 181.868 62.5225 182.783 61.8415 183.588C61.3616 184.157 60.5258 184.646 60.4639 185.451C60.4639 185.514 60.5258 185.577 60.5877 185.577C61.4081 185.53 62.2284 184.472 62.7082 183.841C63.2809 183.099 63.7917 182.089 63.7143 181.126V181.111Z" fill="#E8CEE5"/>
<path d="M74.6091 29.5957C69.3929 30.5743 63.9755 29.7536 58.8986 31.7422C58.5581 31.8685 58.5736 32.4682 58.9915 32.4366C62.0717 32.263 65.1054 31.6317 68.1856 31.4423C70.4145 31.3003 73.0302 31.7896 75.0579 30.669C75.6616 30.3375 75.2282 29.4853 74.6245 29.5957H74.6091Z" fill="#E8CEE5"/>
<path d="M76.4983 22.1939C73.9599 20.8998 71.3131 19.6845 68.6353 18.7217C68.171 18.5481 67.8924 19.2741 68.3103 19.5109C70.7094 20.9629 73.2788 22.2097 75.8327 23.3461C76.5911 23.6775 77.2567 22.5885 76.4983 22.1939Z" fill="#E8CEE5"/>
<defs>
<filter id="filter0_d_515_372" x="0.333984" y="0.5" width="195.958" height="212.645" filterUnits="userSpaceOnUse" color-interpolation-filters="sRGB">
<feFlood flood-opacity="0" result="BackgroundImageFix"/>
<feColorMatrix in="SourceAlpha" type="matrix" values="0 0 0 0 0 0 0 0 0 0 0 0 0 0 0 0 0 0 127 0" result="hardAlpha"/>
<feMorphology radius="5" operator="dilate" in="SourceAlpha" result="effect1_dropShadow_515_372"/>
<feOffset dx="-1" dy="15"/>
<feGaussianBlur stdDeviation="7.5"/>
<feComposite in2="hardAlpha" operator="out"/>
<feColorMatrix type="matrix" values="0 0 0 0 0 0 0 0 0 0 0 0 0 0 0 0 0 0 0.1 0"/>
<feBlend mode="normal" in2="BackgroundImageFix" result="effect1_dropShadow_515_372"/>
<feBlend mode="normal" in="SourceGraphic" in2="effect1_dropShadow_515_372" result="shape"/>
</filter>
<linearGradient id="paint0_linear_515_372" x1="128.583" y1="157.184" x2="63.2181" y2="154.253" gradientUnits="userSpaceOnUse">
<stop stop-color="#008080"/>
<stop offset="1" stop-color="#00FFA3"/>
</linearGradient>
<linearGradient id="paint1_linear_515_372" x1="67.7067" y1="191.069" x2="31.5879" y2="189.025" gradientUnits="userSpaceOnUse">
<stop stop-color="#008080"/>
<stop offset="1" stop-color="#00FFA3"/>
</linearGradient>
</defs>
</svg>
