<svg width="188" height="214" viewBox="0 0 188 214" fill="none" xmlns="http://www.w3.org/2000/svg">
<path d="M177.671 155.934C177.525 158.2 177.105 162.821 173.804 162.838C173.804 162.838 173.749 162.838 173.64 162.821C173.403 162.803 172.965 162.734 172.473 162.492C172.308 162.423 172.144 162.336 171.98 162.232C170.941 161.575 169.846 160.156 169.864 157.214C169.864 156.574 169.81 155.986 169.682 155.484C169.609 155.207 169.536 154.947 169.463 154.705C169.427 154.653 169.408 154.601 169.39 154.549C169.244 154.238 169.135 153.996 169.007 153.788C168.934 153.65 168.843 153.511 168.752 153.373C168.715 153.338 168.715 153.304 168.679 153.269C168.624 153.2 168.57 153.113 168.497 153.044C168.296 152.784 168.077 152.56 167.84 152.352C167.822 152.335 167.785 152.3 167.767 152.283C167.731 152.248 167.694 152.213 167.658 152.196C167.384 151.954 167.129 151.746 166.873 151.539C165.907 150.777 165.104 150.224 165.159 149.237C165.305 146.919 166.928 143.925 169.281 144.583C169.281 144.583 169.864 141.814 168.259 141.07C167.238 140.585 168.259 140.309 168.88 140.257C169.956 140.187 171.013 140.568 172.126 140.482C172.272 140.464 172.418 140.447 172.564 140.43C173.02 140.378 173.476 140.326 173.913 140.412C173.968 140.412 174.005 140.412 174.041 140.412C175.026 140.637 175.737 141.399 176.102 142.247C176.467 143.112 176.522 144.063 176.594 144.981C176.868 148.684 177.889 152.144 177.689 155.916L177.671 155.934Z" fill="#222425"/>
<path d="M170.867 150.881C170.721 151.244 170.411 151.4 170.083 151.608C169.7 151.867 169.353 152.127 169.007 152.438C168.806 152.629 168.642 152.819 168.478 153.027C168.277 152.767 168.058 152.542 167.821 152.335C167.803 152.317 167.766 152.283 167.748 152.265C167.712 152.231 167.675 152.196 167.639 152.179C167.766 152.006 167.894 151.85 168.04 151.694C168.587 151.123 169.663 150.085 170.539 150.327C170.794 150.397 170.958 150.622 170.849 150.864L170.867 150.881Z" fill="#E8CEE5"/>
<path d="M171.706 152.871C171.122 153.563 170.101 153.944 169.371 154.532C169.225 154.221 169.116 153.978 168.988 153.771C169.645 153.165 170.539 152.421 171.45 152.404C171.706 152.404 171.888 152.663 171.706 152.871Z" fill="#E8CEE5"/>
<path d="M177.671 155.934C177.525 158.201 177.105 162.821 173.804 162.838C173.804 162.838 173.749 162.838 173.64 162.821C173.403 162.803 172.965 162.734 172.473 162.492C177.342 160.71 176.248 154.688 175.792 150.397C175.446 146.988 175.464 143.562 174.096 140.43C175.044 140.637 175.737 141.399 176.102 142.247C176.467 143.112 176.522 144.063 176.595 144.981C176.868 148.684 177.889 152.144 177.689 155.916L177.671 155.934Z" fill="#E8CEE5"/>
<g opacity="0.1" filter="url(#filter0_d_515_783)">
<path d="M71.8499 163.98C68.2934 161.627 65.047 158.547 60.8156 157.682C57.6604 157.041 54.3957 157.751 51.1492 157.785C44.7657 157.855 38.4187 155.155 34.2238 150.604C30.029 146.053 28.0592 139.72 28.9894 133.733C30.4484 124.286 38.6011 115.98 37.3426 106.515C36.5219 100.303 31.8163 95.3192 28.1321 90.1108C22.2411 81.7705 18.7028 70.8 23.2077 61.7329C28.0774 51.9044 40.4432 47.6478 47.7021 39.2382C52.8089 33.3203 55.1434 25.5683 60.3961 19.7716C65.5759 14.0441 73.1267 10.7218 80.7504 8.50695C90.8363 5.58264 101.725 4.37138 111.957 6.79389C123.903 9.63168 134.299 17.4702 140.445 27.5755C146.591 37.6982 148.543 49.9318 146.427 61.4387C145.315 67.5123 143.108 73.8108 145.114 79.6768C147.175 85.6638 153.048 89.5744 157.863 93.9003C162.331 97.9148 166.18 102.743 167.931 108.349C169.663 113.955 169.043 120.409 165.322 125.047C163.116 127.798 159.997 129.771 157.735 132.47C150.841 140.655 153.504 152.785 149.583 162.578C144.877 174.362 129.466 181.145 116.954 176.958C111.428 175.106 106.74 171.542 101.542 168.963C91.7664 164.118 80.8598 169.915 71.8682 163.945L71.8499 163.98Z" fill="#F6F6F6"/>
</g>
<path d="M79.5112 63.9824C79.5112 63.9824 79.0369 66.0415 78.2162 69.1215C76.7754 74.4857 74.3132 82.9298 71.5409 88.7439C70.6107 90.6992 69.6623 92.343 68.6957 93.5023C63.5707 99.6624 42.9611 85.56 40.3347 83.7258C40.1524 83.5874 39.9517 83.5355 39.7329 83.5355C38.2738 83.5355 32.4922 83.224 32.5651 79.3999C32.6563 75.2297 35.7022 69.9867 42.3228 75.9046C46.4082 79.5383 60.8349 84.0719 60.8349 84.0719L65.5404 55.2613C65.7958 53.6867 67.802 53.0292 69.0057 54.1193C71.5956 56.438 75.5716 60.0891 79.5294 63.9651L79.5112 63.9824Z" fill="#F5A784"/>
<path d="M78.1976 69.1215C76.7568 74.4856 74.2946 82.9298 71.5223 88.7438C71.4493 80.4381 71.2305 69.0004 71.2305 69.0004C73.7474 67.8237 76.1184 68.1179 78.1976 69.1042V69.1215Z" fill="#E0855C"/>
<path d="M94.631 114.613C90.8009 117.174 86.5513 119.648 82.32 122.088C80.3137 123.247 78.3804 124.424 76.5566 125.566C67.4008 131.345 61.0538 136.519 61.0538 136.519C63.1877 138.942 65.4128 144.513 67.4191 150.864C71.4498 163.582 74.678 179.467 74.678 179.467C71.0303 182.633 67.948 181.249 67.948 181.249C65.0845 175.971 58.9199 164.828 53.722 154.498C48.8705 144.842 44.8945 135.896 45.2775 133.058C45.6423 130.273 53.5578 122.001 61.7651 114.128C70.8297 105.407 80.2408 97.1361 80.2408 97.1361C80.2408 97.1361 85.7124 91.4086 92.0229 87.8614C96.3819 85.4216 101.16 84.0373 104.79 86.304C106.322 87.2557 107.672 88.8823 108.693 91.3567C108.821 91.6682 108.93 91.9623 109.039 92.2738C111.848 100.77 104.626 107.968 94.631 114.63V114.613Z" fill="#F5A784"/>
<path d="M168.459 148.926C158.446 149.376 148.014 150.449 139.588 151.089C132.311 151.642 126.511 151.885 123.738 151.089C118.34 149.601 109.531 137.454 103.712 128.577C100.229 123.282 97.8215 119.146 97.8215 119.146C97.8215 119.146 96.3806 117.347 94.6297 114.595C89.9971 107.276 83.2671 93.2774 96.5083 89.4879C102.162 87.8613 105.992 89.0726 109.038 92.2391C113.105 96.4785 115.805 104.213 119.617 113.471C120.583 115.807 130.104 138.198 130.104 138.198C132.785 137.592 136.031 137.367 139.497 137.384C152.792 137.454 169.225 141.226 169.225 141.226C172.253 144.929 168.478 148.926 168.478 148.926H168.459Z" fill="#F5A784"/>
<path d="M75.716 36.9368C79.5643 35.9159 83.3944 34.8604 87.1698 33.6838C89.3949 32.9916 91.8571 32.957 92.6778 30.5172C93.3344 28.5792 92.7873 26.1394 91.5288 24.5475C90.3251 23.0247 88.4647 22.0211 86.4949 21.5712C84.5252 21.1213 82.4642 21.2252 80.4945 21.5712C77.6857 22.0903 74.804 23.3189 73.3632 25.6895C72.3783 27.2987 72.2324 29.2021 72.3783 31.0363C72.506 32.8705 73.1261 33.9779 74.0745 35.5353C74.2022 35.7429 75.0411 37.3867 75.4971 37.231C75.6065 37.1964 75.6977 36.9368 75.716 36.9368Z" fill="#222425"/>
<path d="M74.6959 34.0471C74.6959 34.0471 72.7626 32.5936 71.6136 34.67C70.4645 36.7465 73.8387 39.5669 75.8814 39.3074C75.8814 39.3074 75.0971 34.7392 74.6959 34.0298V34.0471Z" fill="#E0855C"/>
<path d="M108.072 48.6168C107.67 50.9009 106.138 59.172 106.157 66.1454C106.157 66.6991 106.156 67.2182 106.193 67.72C106.375 71.3192 108.327 88.3113 108.637 90.9761C108.655 91.2011 108.692 91.3222 108.692 91.3222C96.3989 97.3784 82.2093 97.1362 80.4219 97.1016C80.2943 97.1016 80.2213 97.1016 80.2213 97.1016C80.1848 96.9632 80.1119 96.7209 79.9842 96.3748C78.8716 93.2429 74.6585 80.369 71.2297 69.0005C71.175 68.8275 71.1203 68.6544 71.0655 68.4814C69.2964 62.6155 66.67 58.1511 65.977 54.7423C65.7216 53.4791 69.9165 52.0256 71.9592 51.3335C72.2511 51.2297 72.5793 51.1259 72.8894 51.0393C74.5126 50.5029 76.1541 50.053 77.4855 49.7243C78.288 49.5339 80.2395 49.1186 80.2395 49.1186L79.3823 42.2491C79.6194 42.2491 79.8747 42.2491 80.1118 42.2145C80.586 42.2145 81.042 42.1453 81.4797 42.0761C82.0816 41.9722 82.6288 41.8684 83.1394 41.7127C83.413 41.6262 83.6684 41.557 83.8872 41.4877C84.2338 41.3666 84.5803 41.2455 84.9086 41.1071C85.4557 40.8821 85.9664 40.6399 86.4406 40.363C86.5865 40.2765 86.7325 40.2073 86.8601 40.1034C86.9148 40.1034 86.9513 40.0688 86.9696 40.0342C87.079 39.965 87.1884 39.8958 87.3161 39.8266C88.0092 39.394 88.5746 38.9441 89.0305 38.5288C89.3223 38.2693 89.5777 38.027 89.7783 37.8367C89.8512 37.7675 89.8695 37.7329 89.906 37.6982C90.0154 37.5944 90.1066 37.4906 90.1613 37.4214C90.2525 37.3176 90.3254 37.2484 90.3437 37.2137V37.3695C90.3437 37.4906 90.3437 37.5771 90.3619 37.6982C90.4531 38.8403 90.6173 40.2938 90.8726 41.7127C91.0185 42.699 91.2009 43.668 91.3468 44.5159C91.6204 45.9694 91.8757 47.0249 91.8757 47.0249C92.204 46.9557 92.5506 46.8865 92.8971 46.8692C92.9153 46.8692 92.97 46.8346 93.0065 46.8519C93.1889 46.8173 93.3895 46.8 93.5537 46.7826C94.9033 46.5923 96.1982 46.4885 97.4385 46.4539C97.9856 46.4539 98.5146 46.4539 99.0252 46.4539C103.184 46.5577 106.284 47.3537 107.524 47.7863C107.889 47.9074 108.108 48.2535 108.035 48.6168H108.072Z" fill="#F5A784"/>
<path d="M90.3793 37.231C90.3246 45.3291 82.0078 46.4538 79.8557 45.8309L79.418 42.2663C86.4763 42.1971 90.3976 37.2483 90.3976 37.2483L90.3793 37.231Z" fill="#E0855C"/>
<path d="M73.9096 28.8907C73.1071 30.1193 73.5448 32.4034 74.019 34.9297C75.4781 42.5779 78.4145 44.4813 82.5911 44.066C86.786 43.6507 90.7255 41.2974 90.0142 34.0645C89.6677 30.4481 89.3941 27.0912 87.6979 25.8453C85.1628 23.9765 76.3536 25.1532 73.8914 28.8907H73.9096Z" fill="#F5A784"/>
<path d="M89.2131 33.1647C89.2131 33.1647 89.7603 29.7559 92.113 31.0364C94.4658 32.2995 92.8061 37.6117 89.7056 37.8713C89.7056 37.8713 88.5018 34.4452 89.2131 33.1647Z" fill="#F5A784"/>
<path d="M77.4842 34.0298C77.4842 34.0298 76.8459 34.4105 76.6817 33.2338C76.5358 32.161 77.0647 32.2129 77.0647 32.2129C77.0647 32.2129 77.5389 32.1091 77.6848 33.0435C77.8125 33.9779 77.4842 34.0298 77.4842 34.0298Z" fill="#222425"/>
<path d="M84.5076 32.6111C84.5076 32.6111 83.8693 32.9918 83.7051 31.8151C83.5592 30.7423 84.0882 30.7942 84.0882 30.7942C84.0882 30.7942 84.5624 30.6904 84.7083 31.6248C84.8542 32.5592 84.5076 32.6284 84.5076 32.6284V32.6111Z" fill="#222425"/>
<path d="M81.3333 36.5042C80.9685 36.5215 80.2025 36.8849 79.9654 36.5561C79.7648 36.2793 79.9289 34.4105 79.9471 34.0817C79.9836 32.9224 80.1295 32.1264 80.0383 30.7767C80.0383 30.7248 79.9289 30.7075 79.9107 30.7767C79.4912 32.6801 79.6735 34.895 79.6006 36.8503C79.6006 36.9541 79.6918 37.0406 79.8195 37.0233C80.3301 36.9195 80.859 36.9195 81.3697 36.8157C81.5339 36.7811 81.5339 36.5042 81.3515 36.5215L81.3333 36.5042Z" fill="#E0855C"/>
<path d="M77.4495 30.3441C76.9023 30.2057 75.9539 30.3441 75.6986 30.8978C75.6621 31.0017 75.7715 31.1228 75.881 31.0882C76.1181 31.019 76.3187 30.8632 76.5558 30.794C76.8111 30.7248 77.0847 30.7248 77.3583 30.7421C77.5954 30.7594 77.6866 30.396 77.4312 30.3441H77.4495Z" fill="#222425"/>
<path d="M84.8902 29.4444C84.4525 28.8388 83.2123 29.0119 82.7746 29.5483C82.6834 29.6694 82.7928 29.8251 82.9387 29.8424C83.267 29.877 83.5588 29.6867 83.8871 29.6521C84.1789 29.6175 84.416 29.6867 84.6896 29.7213C84.8355 29.7386 84.9632 29.5656 84.872 29.4444H84.8902Z" fill="#222425"/>
<path d="M83.5598 37.7326C82.7755 38.1133 82.356 38.6843 81.4258 38.84C80.9516 38.9266 80.4957 38.9265 80.0397 38.8054C79.7844 38.7362 79.7844 38.6843 79.529 38.7016C79.4378 38.7016 79.4014 38.8054 79.4196 38.8746C79.6385 39.6187 80.8787 39.4976 81.4805 39.3937C82.4472 39.2553 83.3044 38.7881 83.7604 37.9402C83.8151 37.8364 83.6874 37.6807 83.5598 37.7326Z" fill="#E0855C"/>
<path d="M122.39 120.098C121.861 120.461 121.332 120.825 120.821 121.171C120.402 121.465 119.982 121.724 119.563 121.984C112.76 126.241 107.215 127.919 103.732 128.594C100.248 123.299 97.8408 119.164 97.8408 119.164C97.8408 119.164 96.3999 117.364 94.649 114.613C90.8189 117.174 86.5694 119.648 82.338 122.088C80.3318 123.247 78.3985 124.424 76.5747 125.566C74.842 124.562 73.2735 123.593 71.8509 122.624C66.6164 119.129 63.4611 116.014 61.7832 114.111C70.8478 105.39 80.2588 97.1187 80.2588 97.1187C80.2588 97.1187 85.7304 91.3912 92.0409 87.844C96.4182 86.6154 101.069 85.8022 104.808 86.2867C106.34 87.2384 107.69 88.8649 108.711 91.3393C108.839 91.6508 108.948 91.945 109.058 92.2564C113.125 96.4958 115.824 104.231 119.636 113.488C120.603 115.824 121.533 118.039 122.39 120.115V120.098Z" fill="url(#paint0_linear_515_783)"/>
<path d="M74.6758 179.449C71.0281 182.616 67.9458 181.232 67.9458 181.232C65.0823 175.954 58.9177 164.811 53.7197 154.48C56.9115 153.996 61.7994 152.975 67.4169 150.847C71.4476 163.565 74.6758 179.449 74.6758 179.449Z" fill="url(#paint1_linear_515_783)"/>
<path d="M76.5924 181.768C76.5924 181.941 76.6106 182.097 76.5924 182.253C76.5012 182.997 76.0087 183.689 75.3886 184.191C74.6408 184.779 73.7107 185.125 72.7987 185.471C69.1693 186.855 66.0322 188.863 62.1657 189.832C59.8494 190.403 55.0891 191.458 54.0495 188.465C54.0495 188.465 54.0495 188.413 54.013 188.309C53.9766 188.119 53.9218 187.79 53.9583 187.392C53.9583 187.167 54.013 186.907 54.1042 186.648C54.4325 185.506 55.5086 184.087 58.4815 183.187C59.1198 182.997 59.6852 182.755 60.1594 182.495C60.4148 182.357 60.6519 182.218 60.8707 182.045C60.9255 182.01 60.9619 181.959 61.0167 181.924C61.3267 181.664 61.5638 181.474 61.7644 181.249L62.0015 180.972C62.0015 180.972 62.0745 180.903 62.0927 180.868C62.1839 180.747 62.2751 180.609 62.3663 180.488C62.5122 180.263 62.6399 180.055 62.7493 179.83C62.7675 179.813 62.7858 179.778 62.804 179.744C63.0046 179.346 63.1505 179.017 63.2782 178.705C63.7342 177.598 64.0442 176.698 65.0474 176.456C67.4184 175.868 70.9202 176.404 70.9931 178.74C70.9931 178.74 73.9478 178.411 74.2031 176.733C74.3673 175.66 74.9691 176.508 75.2062 177.044C75.6075 177.979 75.5528 179.052 75.9905 180.021C76.0452 180.159 76.1182 180.263 76.1729 180.401C76.3735 180.799 76.5741 181.197 76.6288 181.612C76.6288 181.647 76.6471 181.682 76.6471 181.716L76.5924 181.768Z" fill="#222425"/>
<path d="M168.46 148.926C158.447 149.376 148.014 150.449 139.588 151.089C140.154 148.251 140.427 145.361 140.263 142.472C140.172 140.932 140.062 138.994 139.497 137.384C152.793 137.454 169.226 141.226 169.226 141.226C172.253 144.929 168.478 148.926 168.478 148.926H168.46Z" fill="url(#paint2_linear_515_783)"/>
<path d="M63.6241 184.589C62.8216 183.793 62.092 182.945 61.2531 182.166C61.1619 182.08 61.0707 181.993 60.9795 181.924C61.2895 181.682 61.5267 181.474 61.7273 181.249C61.8367 181.353 61.9279 181.439 62.0373 181.543C62.8581 182.287 63.6606 183.101 64.2807 184C64.5542 184.381 63.9888 184.952 63.6241 184.589Z" fill="#E8CEE5"/>
<path d="M65.758 182.287C65.8856 182.564 65.5391 182.893 65.2473 182.737C64.3718 182.322 63.7517 181.543 63.0039 180.972C62.8033 180.816 62.5662 180.643 62.3291 180.505C62.475 180.28 62.6027 180.072 62.7121 179.847C62.7304 179.83 62.7486 179.795 62.7668 179.761C63.0587 179.847 63.2958 180.003 63.5329 180.176C64.3901 180.747 65.3567 181.353 65.7762 182.287H65.758Z" fill="#E8CEE5"/>
<path d="M76.5748 182.253C76.4836 182.997 75.9911 183.689 75.371 184.191C74.6232 184.779 73.6931 185.125 72.7812 185.471C69.1517 186.855 66.0147 188.863 62.1481 189.832C59.8318 190.403 55.0715 191.458 54.0319 188.465C54.0319 188.465 54.0319 188.413 53.9955 188.309C53.959 188.119 53.9043 187.79 53.9407 187.392C58.5186 190.316 62.9141 187.669 67.5649 186.25C71.0485 185.194 74.4773 184.571 76.5748 182.253Z" fill="#E8CEE5"/>
<path d="M120.802 121.171C120.383 121.465 119.963 121.725 119.544 121.984C115.076 111.844 111.045 101.375 105.136 91.945C104.825 91.4432 105.555 90.9414 105.902 91.4259C109.604 96.1844 111.793 102.068 114.364 107.414C116.553 111.965 118.778 116.533 120.784 121.171H120.802Z" fill="#E8CEE5"/>
<path d="M94.6302 114.613C90.8001 117.174 86.5505 119.648 82.3192 122.088C80.313 123.247 78.3797 124.424 76.5558 125.566C74.8231 124.562 73.2546 123.593 71.832 122.624C84.8908 115.564 94.3749 114.63 94.6302 114.613Z" fill="#222425" fill-opacity="0.5"/>
<path d="M108.693 91.3394C96.4 97.3956 82.2104 97.188 80.423 97.1188C80.3501 97.1188 80.2771 97.0842 80.2224 97.0669C80.2041 96.963 80.1129 96.7381 80.0035 96.392C78.891 93.2601 74.6779 80.3862 71.249 69.0177C73.1276 63.1864 73.0181 54.1712 72.9087 51.0565C74.5319 50.5201 76.1734 50.0702 77.5048 49.7415C77.596 52.7869 78.4532 60.3832 84.6179 60.5908C91.895 60.8331 93.3177 51.0392 93.5912 46.7998C94.9409 46.6095 96.2358 46.5057 97.476 46.4711C98.0232 46.4711 98.5521 46.4711 99.0628 46.4711C98.6616 49.6722 98.8439 52.5273 99.3546 55.071C100.613 61.2311 103.969 65.4705 106.212 67.7372C106.304 69.5714 106.851 74.7625 107.398 79.8152C107.945 84.7986 108.711 91.3567 108.711 91.3567L108.693 91.3394Z" fill="#222425"/>
<path d="M106.212 67.772C106.303 69.5543 106.85 74.7454 107.379 79.798C98.2778 67.4432 99.3538 55.0538 99.3538 55.0538C100.612 61.2139 103.968 65.4533 106.212 67.7201V67.772Z" fill="#0E0E0E"/>
<path d="M44.3462 77.9463C43.6349 80.3861 42.3582 82.5836 41.5921 84.9715C41.1909 86.2174 43.0512 86.7365 43.8172 85.9405C45.7323 83.9506 46.6807 80.9917 47.392 78.4481C47.9027 76.6139 44.8751 76.1467 44.3462 77.9463Z" fill="url(#paint3_linear_515_783)"/>
<path d="M76.5203 46.0558C76.9398 46.6269 77.414 47.1633 77.87 47.6824C78.0341 47.8727 78.1983 48.0631 78.3442 48.2707C81.0982 51.9391 81.5907 56.1612 82.9586 60.2275C83.1227 59.9853 83.3051 59.743 83.451 59.5008C83.0497 57.9088 82.7032 56.3169 82.2473 54.7596C82.9221 52.3198 83.451 50.1049 85.2931 48.0977C86.4421 46.8518 87.7918 45.7617 88.7037 44.3255C89.5974 42.9066 89.9257 41.2454 90.1081 39.6189C90.2904 37.9751 90.2722 36.3485 91.0017 34.8431C91.0564 34.7047 91.1294 34.5835 91.1476 34.4278C91.1841 34.0817 90.9835 33.7357 90.6917 33.528C90.5822 33.4415 90.4363 33.355 90.2904 33.355C90.1445 33.355 89.9804 33.4069 89.9074 33.5453C89.871 33.6318 89.8709 33.7184 89.8892 33.8222C89.9621 34.8258 89.8162 35.8467 89.7068 36.8503C89.5974 37.9231 89.5244 38.9787 89.3968 40.0515C89.0867 42.7509 87.883 44.5677 86.0044 46.5057C83.7975 48.7898 82.3749 50.9874 82.0101 53.9117C81.5542 52.4755 81.007 51.0912 80.2045 49.7415C79.1467 47.9592 77.6876 46.4884 76.5021 44.7927C75.6814 43.616 75.1524 42.2837 74.8242 40.9167C74.6782 40.311 74.4594 39.5843 74.5141 38.9614C74.5688 38.3038 74.8424 36.9887 74.4047 36.435C73.7298 35.5698 73.4745 36.5908 73.5657 37.1791C73.7845 38.4942 73.7663 39.8265 74.0581 41.107C74.4047 42.647 75.1707 44.1351 76.1191 45.5194C76.2468 45.6925 76.3744 45.8655 76.5021 46.0385L76.5203 46.0558Z" fill="url(#paint4_linear_515_783)"/>
<path d="M91.5119 79.4864C90.3812 80.715 90.6 82.8779 90.6365 84.4006C90.6365 85.6638 91.056 86.9443 90.8736 88.2074C90.7459 89.1764 90.3994 90.5953 89.3963 91.0798C89.0498 91.2529 88.6485 91.3048 88.2655 91.3394C87.919 91.374 87.5724 91.3913 87.2441 91.2875C86.7334 91.1318 86.3687 90.7511 86.0221 90.3531C84.7455 88.8304 85.0008 87.4807 84.9096 85.6638C84.8184 83.9334 84.1983 82.9298 82.9581 81.684C79.6204 78.3617 81.3713 75.5239 82.3744 71.8036C83.6694 66.9932 84.1436 60.8331 81.9732 56.1784C81.9732 56.1438 81.9002 56.1611 81.9002 56.1784C82.1556 59.2239 82.8122 62.1309 82.6845 65.2109C82.5386 68.6024 81.5902 71.5613 80.6236 74.8144C80.0946 76.614 79.6934 78.5693 80.6965 80.2824C81.0795 80.9226 81.6449 81.4071 82.1738 81.9262C84.0341 83.7431 84.0524 85.3004 84.1983 87.671C84.3624 90.2666 87.0618 93.4158 89.9982 91.4086C91.2749 90.5434 91.5484 88.9515 91.5484 87.5672C91.5484 86.3213 91.2748 85.0928 91.2019 83.8469C91.1654 82.7914 91.0195 81.7359 91.3478 80.6804C91.4025 80.4727 91.4937 80.2651 91.6396 80.1093C91.895 79.8152 92.3145 79.6767 92.6975 79.5729C92.9163 79.5037 93.1352 79.4518 93.3541 79.4864C93.6276 79.5383 93.8647 79.7287 94.0471 79.919C94.576 80.4727 94.9408 81.1303 95.2508 81.8051C95.3238 81.9608 95.3785 82.2896 95.5792 82.3588C95.7798 82.4107 96.0534 82.2723 95.9986 82.0647C95.5974 80.2651 93.6276 77.1158 91.4937 79.4345L91.5119 79.4864Z" fill="url(#paint5_linear_515_783)"/>
<path d="M98.6042 80.3287L94.4906 82.2347C93.5131 82.6876 93.1077 83.8066 93.5851 84.734L98.6035 94.4829C99.0809 95.4103 100.26 95.795 101.238 95.342L105.351 93.436C106.329 92.9831 106.734 91.8641 106.257 90.9367L101.239 81.1879C100.761 80.2604 99.5817 79.8758 98.6042 80.3287Z" fill="#E8CEE5"/>
<path d="M106.722 47.8033C107.306 47.6822 107.926 47.8552 108.346 48.2359C111.92 51.5063 129.448 67.8582 130.998 75.0046C132.621 82.4452 108.802 88.19 105.719 88.8994C105.519 88.9514 105.336 89.0552 105.19 89.2109C104.278 90.2318 100.448 94.1251 97.5302 91.6853C94.3202 89.0206 92.1133 83.6391 100.85 82.6528C106.23 82.0472 118.742 74.7105 118.742 74.7105L103.713 63.7746C103.713 63.7746 98.8251 49.4645 106.704 47.8033H106.722Z" fill="#F5A784"/>
<path d="M126.111 138.249C118.961 137.851 111.684 138.198 104.516 138.215C97.3486 138.249 90.0715 137.938 82.922 138.422C82.7213 138.422 82.7213 138.717 82.922 138.717C90.0715 139.201 97.3486 138.907 104.516 138.924C111.684 138.959 118.943 139.288 126.111 138.89C126.567 138.872 126.567 138.249 126.111 138.215V138.249Z" fill="#E8CEE5"/>
<path d="M177.797 110.823C169.864 110.425 161.875 110.702 153.923 110.719C146.026 110.719 137.928 110.252 130.049 110.91C129.666 110.944 129.666 111.429 130.049 111.463C137.91 112.121 146.026 111.637 153.923 111.654C161.857 111.654 169.864 111.931 177.797 111.55C178.29 111.533 178.29 110.841 177.797 110.823Z" fill="#E8CEE5"/>
<path d="M56.1831 101.047C50.7845 100.753 45.313 100.977 39.9144 100.977C34.534 100.977 28.9895 100.649 23.6456 101.22C23.445 101.237 23.445 101.514 23.6456 101.531C28.9895 102.12 34.534 101.773 39.9144 101.773C45.313 101.773 50.7845 101.998 56.1831 101.704C56.6391 101.687 56.6391 101.064 56.1831 101.029V101.047Z" fill="#E8CEE5"/>
<path d="M61.6542 104.836C56.0732 104.525 49.8356 104.231 44.2911 105.044C44.1999 105.044 44.1999 105.2 44.2911 105.217C49.8356 106.03 56.0549 105.736 61.6542 105.424C62.0554 105.407 62.0554 104.871 61.6542 104.836Z" fill="#E8CEE5"/>
<path d="M156.823 36.6772C149.309 36.2792 141.703 36.5561 134.171 36.5734C126.638 36.5734 119.033 36.3485 111.519 36.8503C111.245 36.8676 111.245 37.2482 111.519 37.2656C119.033 37.7674 126.638 37.5251 134.171 37.5424C141.703 37.5424 149.309 37.8366 156.823 37.4386C157.334 37.404 157.334 36.7118 156.823 36.6945V36.6772Z" fill="#E8CEE5"/>
<defs>
<filter id="filter0_d_515_783" x="0.166992" y="0.5" width="187.687" height="212.702" filterUnits="userSpaceOnUse" color-interpolation-filters="sRGB">
<feFlood flood-opacity="0" result="BackgroundImageFix"/>
<feColorMatrix in="SourceAlpha" type="matrix" values="0 0 0 0 0 0 0 0 0 0 0 0 0 0 0 0 0 0 127 0" result="hardAlpha"/>
<feMorphology radius="5" operator="dilate" in="SourceAlpha" result="effect1_dropShadow_515_783"/>
<feOffset dx="-1" dy="15"/>
<feGaussianBlur stdDeviation="7.5"/>
<feComposite in2="hardAlpha" operator="out"/>
<feColorMatrix type="matrix" values="0 0 0 0 0 0 0 0 0 0 0 0 0 0 0 0 0 0 0.1 0"/>
<feBlend mode="normal" in2="BackgroundImageFix" result="effect1_dropShadow_515_783"/>
<feBlend mode="normal" in="SourceGraphic" in2="effect1_dropShadow_515_783" result="shape"/>
</filter>
<linearGradient id="paint0_linear_515_783" x1="122.39" y1="128.594" x2="42.1099" y2="119.725" gradientUnits="userSpaceOnUse">
<stop stop-color="#008080"/>
<stop offset="1" stop-color="#00FFA3"/>
</linearGradient>
<linearGradient id="paint1_linear_515_783" x1="74.6758" y1="181.533" x2="46.6567" y2="180.052" gradientUnits="userSpaceOnUse">
<stop stop-color="#008080"/>
<stop offset="1" stop-color="#00FFA3"/>
</linearGradient>
<linearGradient id="paint2_linear_515_783" x1="170.402" y1="151.089" x2="130.19" y2="144.072" gradientUnits="userSpaceOnUse">
<stop stop-color="#008080"/>
<stop offset="1" stop-color="#00FFA3"/>
</linearGradient>
<linearGradient id="paint3_linear_515_783" x1="47.4498" y1="86.3201" x2="39.5392" y2="85.9394" gradientUnits="userSpaceOnUse">
<stop stop-color="#008080"/>
<stop offset="1" stop-color="#00FFA3"/>
</linearGradient>
<linearGradient id="paint4_linear_515_783" x1="91.1519" y1="60.2275" x2="67.6093" y2="59.0341" gradientUnits="userSpaceOnUse">
<stop stop-color="#008080"/>
<stop offset="1" stop-color="#00FFA3"/>
</linearGradient>
<linearGradient id="paint5_linear_515_783" x1="96.0057" y1="92.0455" x2="74.6769" y2="91.313" gradientUnits="userSpaceOnUse">
<stop stop-color="#008080"/>
<stop offset="1" stop-color="#00FFA3"/>
</linearGradient>
</defs>
</svg>
