<svg width="189" height="205" viewBox="0 0 189 205" fill="none" xmlns="http://www.w3.org/2000/svg">
<g opacity="0.1" filter="url(#filter0_d_515_599)">
<path d="M43.6967 143.467C41.9769 137.932 41.9769 131.895 40.5027 126.335C38.5661 118.988 34.2304 112.29 30.1692 105.604C26.1081 98.9183 22.1915 91.963 21.2087 84.4811C20.226 76.9992 22.6684 68.8072 29.49 63.9825C33.7968 60.9335 39.4188 59.4885 43.8412 56.5742C50.128 52.4353 53.3509 45.8106 55.5332 39.3206C57.7156 32.8306 59.1897 26.0589 63.1063 20.1812C69.1474 11.0952 81.3164 4.97259 93.6154 5.53588C105.914 6.09916 117.534 13.6912 120.555 23.8058C121.668 27.5284 121.711 31.5326 123.763 34.9613C126.711 39.8716 133.042 42.4676 138.823 45.0024C148.78 49.3739 158.593 54.8108 164.447 62.9172C170.3 71.0236 171.153 82.3627 163.825 89.5629C154.937 98.2938 137.117 98.7959 130.888 109.045C127.015 115.425 129.298 123.164 132.189 129.911C135.079 136.658 138.548 143.76 136.741 150.777C134.27 160.377 122.665 166.353 111.348 168.52C102.388 170.235 93.1673 169.757 84.0768 169.525C75.6366 169.316 67.2686 167.014 60.3315 162.924C53.7556 159.055 48.4949 153.593 45.2576 147.397C44.5928 146.136 44.0869 144.826 43.6678 143.491L43.6967 143.467Z" fill="#F6F6F6"/>
</g>
<path d="M90.9035 187.868C87.9857 187.868 85.1112 187.575 82.3234 186.989C72.0676 184.814 63.3719 178.499 59.0674 170.12C57.0452 166.175 55.9762 161.811 54.9507 157.587L54.7484 156.764C51.8451 144.886 48.2194 132.339 41.5027 120.976C40.4193 119.15 39.2493 117.324 38.1081 115.567C35.5225 111.566 32.8358 107.425 31.1025 102.922C28.1702 95.3101 28.7769 87.7817 32.7203 82.7906C34.1214 81.0061 35.6814 80.0023 37.3281 79.7932C38.4404 79.6538 39.6682 80.0023 40.5349 80.7133C41.2571 81.2989 41.676 82.0796 41.7049 82.9022L40.766 82.944C40.7371 82.3863 40.4482 81.8426 39.9282 81.4104C39.2493 80.8667 38.3104 80.5878 37.4437 80.6994C35.7103 80.9224 34.3236 82.2609 33.4569 83.3483C29.7158 88.1023 29.1669 95.3101 31.9836 102.615C33.6881 107.035 36.3459 111.134 38.9026 115.107C40.0437 116.878 41.2282 118.704 42.326 120.544C49.1006 132.004 52.7551 144.635 55.6729 156.569L55.8751 157.392C56.8863 161.56 57.9407 165.868 59.9196 169.73C64.1086 177.872 72.5588 183.992 82.5401 186.125C91.5969 188.049 101.737 186.724 111.097 182.375C115.171 180.479 118.247 178.401 120.486 175.989C123.419 172.839 125.239 168.824 126.64 165.296C129.052 159.19 130.915 152.763 132.707 146.545C135.379 137.288 138.138 127.71 142.818 119.038C144.19 116.501 145.736 114.006 147.223 111.594C149.925 107.244 152.727 102.727 154.489 97.8893C156.15 93.3443 156.237 89.5941 154.735 86.7639C153.767 84.9376 151.745 83.5016 149.563 83.1113C147.902 82.8046 146.357 83.167 145.259 84.1011L144.638 83.418C145.967 82.2748 147.787 81.8565 149.751 82.2051C152.192 82.6512 154.489 84.2684 155.587 86.3457C157.205 89.4128 157.147 93.3861 155.399 98.182C153.608 103.103 150.777 107.648 148.061 112.054C146.573 114.452 145.028 116.933 143.67 119.457C139.048 128.045 136.303 137.567 133.631 146.782C131.825 153.028 129.962 159.483 127.535 165.617C126.105 169.214 124.242 173.327 121.209 176.589C118.868 179.084 115.705 181.245 111.516 183.183C104.828 186.278 97.7503 187.882 90.9324 187.882L90.9035 187.868Z" fill="#AB8DA8"/>
<path d="M101.506 25.5328C102.272 24.6544 102.648 22.8281 102.749 21.7128C102.85 20.4999 102.532 19.1894 101.637 18.3529C101.275 18.0183 100.828 17.7534 100.495 17.3909C100.192 17.0563 100.004 16.652 99.7298 16.3035C99.1376 15.5506 98.1698 15.0906 97.202 15.1045C96.2053 15.1045 95.1508 15.5506 94.2553 15.1324C93.7353 14.8814 93.3886 14.3796 92.8686 14.1007C92.3341 13.808 91.6841 13.808 91.0919 13.9334C90.5574 14.045 90.023 14.2541 89.4885 14.1844C88.7085 14.0728 88.1596 13.3897 87.4663 13.0272C85.964 12.2186 84.1006 13.083 83.5951 14.6026C83.4795 14.9512 83.5084 15.3136 83.5662 15.6761C83.7251 16.5266 84.3317 17.2097 84.3751 18.0601C84.404 18.8548 83.884 19.6494 84.404 20.4023C84.8229 20.9878 85.6173 21.183 85.964 21.894C86.4262 22.856 86.0362 24.1107 86.3829 25.1563C86.5996 25.8116 86.7296 26.7456 87.3651 27.1639C88.2463 27.7494 90.1674 27.2615 91.2219 27.1918C92.5797 27.0942 93.9519 26.9827 95.3097 26.8711C97.1153 26.7178 99.3398 26.9269 100.972 26.0068C101.174 25.8952 101.348 25.7419 101.492 25.5746L101.506 25.5328Z" fill="#222425"/>
<path d="M87.6395 24.9194C87.6395 24.9194 86.3828 23.4695 85.1406 24.9194C83.8839 26.3693 86.0217 29.1437 87.6395 29.2692C87.6395 29.2692 87.8273 25.5468 87.6395 24.9194Z" fill="#E0855C"/>
<path d="M107.934 48.2714C107.703 50.6833 106.894 52.886 106.403 55.2561C106.302 55.6882 106.23 56.1065 106.158 56.5108C106.114 56.8175 106.042 57.2218 105.984 57.7376C105.97 57.8352 105.955 57.9328 105.941 58.0444C105.883 58.379 105.84 58.7414 105.797 59.1039C105.797 59.1736 103.977 75.4852 103.977 75.4852C92.6519 78.4826 80.9228 75.4852 80.9228 75.4852C80.9228 75.4852 80.9084 75.2761 80.8506 74.8717C80.6628 73.0175 80.085 67.1203 79.5072 60.4702C79.5072 60.4144 79.5072 60.3726 79.5072 60.3308C79.5072 60.1356 79.4928 60.0241 79.4928 60.0241C79.2472 57.2079 79.0161 54.2802 78.8283 51.464C78.4817 46.5705 78.265 42.0535 78.3228 39.2513C78.3372 38.2196 80.8072 38.3311 82.5262 38.108C83.7829 37.9407 85.0684 37.8292 86.1807 37.7735C87.2207 37.7177 88.1163 37.6898 88.6941 37.6898C88.7952 37.6898 88.8963 37.6898 88.983 37.6898H89.3296C89.3296 37.6898 89.4741 36.0865 89.4741 36.0726L89.8641 32.1411C90.0519 32.1829 90.2397 32.2248 90.4419 32.2387C90.803 32.3084 91.1641 32.3363 91.5252 32.3502C92.0019 32.3641 92.4497 32.3641 92.8686 32.3362C93.0708 32.3223 93.2875 32.2944 93.4897 32.2666C93.6053 32.2526 93.7208 32.2247 93.8364 32.2247C94.2408 32.155 94.6308 32.0853 95.0064 31.9738C95.2375 31.9041 95.4831 31.8344 95.6998 31.7647C97.072 31.3325 98.0976 30.733 98.6754 30.3287C98.7476 30.2869 98.7765 30.259 98.7909 30.245C98.892 30.1753 98.9787 30.1056 99.0509 30.0638C99.152 29.9941 99.1954 29.9523 99.2243 29.9384C99.1809 30.1335 99.1665 30.2172 99.152 30.3148C99.0365 31.2349 98.892 32.406 98.8342 33.5631C98.7765 34.3578 98.7476 35.1525 98.7187 35.8495C98.7042 36.4769 98.4587 37.5086 98.9642 37.8571C99.0942 37.9547 99.3109 38.0105 99.542 38.0662C100.293 38.2196 101.405 38.2335 101.94 38.2196C102.185 38.2196 102.445 38.2056 102.691 38.1777C103.298 38.1359 103.919 38.0802 104.525 38.122C105.378 38.1638 106.288 38.4287 106.851 39.0561C107.328 39.5858 107.487 40.2969 107.631 40.98C107.703 41.3564 107.747 41.7328 107.804 42.1232C108.093 44.1587 108.137 46.222 107.934 48.2714Z" fill="#F5A784"/>
<path d="M99.2231 29.9245C97.7642 36.2957 91.1196 35.8635 89.5596 35.0131L89.834 32.1272C95.3086 33.2007 99.2086 29.9105 99.2086 29.9105L99.2231 29.9245Z" fill="#E0855C"/>
<path d="M87.9295 20.723C87.0917 21.5595 87.0339 23.4277 86.9617 25.491C86.745 31.7508 88.695 33.7165 92.0173 34.0511C95.3396 34.3996 98.8063 33.1589 99.5141 27.3592C99.8752 24.4594 100.251 21.7687 99.153 20.5139C97.5207 18.6458 90.4862 18.1578 87.9295 20.7091V20.723Z" fill="#F5A784"/>
<path d="M99.0366 26.5364C99.0366 26.5364 100.048 23.9433 101.651 25.3235C103.254 26.7037 101.044 30.6213 98.5889 30.3285C98.5889 30.3285 98.2566 27.4287 99.0366 26.5503V26.5364Z" fill="#F5A784"/>
<path d="M100.901 26.4947C100.54 26.5505 100.178 26.8711 99.9329 27.1081C99.6585 27.3451 99.3551 27.6518 99.2251 27.9864C99.1818 28.098 99.3407 28.1537 99.4129 28.084C99.6151 27.9028 99.7885 27.6797 99.9763 27.4706C100.121 27.61 100.251 27.7634 100.453 27.8331C100.597 27.8889 100.713 27.7076 100.641 27.5961C100.554 27.4427 100.41 27.3312 100.251 27.2336C100.511 27.0384 100.814 26.899 101.016 26.6759C101.103 26.5923 101.016 26.4808 100.901 26.4947Z" fill="#E0855C"/>
<path d="M89.8061 25.3516C89.8061 25.3516 89.2427 25.5468 89.3294 24.5988C89.4016 23.7344 89.8061 23.8599 89.8061 23.8599C89.8061 23.8599 90.1961 23.8599 90.1383 24.6127C90.0805 25.3656 89.8061 25.3655 89.8061 25.3655V25.3516Z" fill="#222425"/>
<path d="M95.4838 25.3516C95.4838 25.3516 94.9204 25.5468 95.0071 24.5988C95.0793 23.7344 95.4838 23.8599 95.4838 23.8599C95.4838 23.8599 95.8738 23.8599 95.816 24.6127C95.7583 25.3656 95.4838 25.3655 95.4838 25.3655V25.3516Z" fill="#222425"/>
<path d="M92.3498 27.9029C92.0609 27.8611 91.4109 28.0284 91.2809 27.7356C91.1653 27.4846 91.6276 26.0347 91.6853 25.7838C91.9165 24.8776 92.162 24.2781 92.3353 23.1907C92.3353 23.1488 92.2631 23.121 92.2342 23.1628C91.5698 24.5988 91.3242 26.3693 90.9342 27.889C90.9053 27.9726 90.9775 28.0563 91.0642 28.0563C91.4831 28.0563 91.8876 28.1399 92.3064 28.1399C92.4509 28.1399 92.4798 27.9168 92.3353 27.9029H92.3498Z" fill="#E0855C"/>
<path d="M90.4145 22.438C90.01 22.2428 89.2589 22.187 88.97 22.5913C88.9122 22.661 88.9844 22.7726 89.0711 22.7726C89.2733 22.7726 89.4467 22.675 89.6489 22.6471C89.8656 22.6332 90.0678 22.675 90.27 22.7447C90.4578 22.8005 90.5878 22.5216 90.4 22.438H90.4145Z" fill="#222425"/>
<path d="M96.335 22.912C96.1039 22.3682 95.1072 22.3125 94.6884 22.6471C94.5872 22.7307 94.6594 22.8701 94.7606 22.898C95.0061 22.9677 95.2661 22.8841 95.5261 22.898C95.7572 22.9119 95.9306 23.0095 96.1473 23.0792C96.2484 23.1211 96.3928 22.9956 96.3495 22.884L96.335 22.912Z" fill="#222425"/>
<path d="M90.9326 29.8547C90.9326 29.8547 92.9549 30.1475 94.486 29.2692C94.486 29.2692 93.9516 30.5518 92.7093 30.8724C91.4671 31.207 90.9326 29.8547 90.9326 29.8547Z" fill="white"/>
<path d="M83.6388 39.2235C86.9611 41.4681 87.2789 45.8318 85.6467 49.3032C84.5489 51.6454 82.5121 53.2627 81.2843 55.4654C80.071 57.6542 78.6121 59.5363 76.9943 61.5021C73.412 65.8936 69.9886 69.8669 68.6886 71.3726C64.153 76.6146 54.6483 83.4739 51.2249 85.8718C50.4449 86.4295 49.9682 86.7501 49.9682 86.7501C49.9682 86.7501 46.7037 85.0771 47.556 82.01C47.556 82.01 60.614 68.6959 62.4774 65.9633C64.7741 62.6174 66.3485 58.6301 68.2697 55.0611C70.4797 50.9344 72.7909 46.8496 75.1887 42.8205C76.2865 40.9802 77.6732 38.5822 80.0999 38.2337C81.0677 38.0943 82.0499 38.3592 82.9022 38.8053C83.1477 38.9308 83.3933 39.0702 83.6099 39.2235H83.6388Z" fill="#F5A784"/>
<path d="M47.5699 82.0379C48.2199 81.9961 48.6533 82.0379 48.6533 82.0379C48.6533 82.0379 51.7733 83.7109 51.2389 85.8718C51.2389 85.8997 50.9066 86.1645 50.3866 86.6246C49.9244 87.0428 49.3033 87.6005 48.6244 88.2558C48.1333 88.7437 46.3999 91.0998 45.6777 90.8768C45.5188 90.821 45.4032 90.7095 45.2876 90.584C44.8399 90.1239 44.3921 89.6499 43.9587 89.1899C43.1932 88.3813 41.9509 87.0289 42.8898 85.9415C42.2109 86.3458 40.5931 87.3217 39.7842 86.8616L39.5098 86.3458C39.5098 86.3458 41.8931 84.631 42.8754 83.7806C44.421 82.4422 46.3855 82.0936 47.5844 82.0379H47.5699Z" fill="#F5A784"/>
<path d="M87.5968 60.5818C87.5679 60.6515 87.5534 60.7351 87.539 60.8049C87.5101 60.8746 87.6546 60.8746 87.6257 60.8049C87.6257 60.7351 87.5968 60.6515 87.5823 60.5818H87.5968Z" fill="#D6BED3"/>
<path d="M92.9556 105.752C91.6411 116.027 90.0233 124.964 90.0233 124.964C90.2544 127.445 90.3411 130.136 90.3411 132.896C90.3411 138.306 89.98 144.008 89.4888 149.124C88.8966 155.579 88.1166 161.072 87.6832 163.819C87.6832 163.93 87.6544 164.056 87.6399 164.167C88.1744 182.472 82.772 184.898 80.2587 180.953C77.7453 177.007 80.2587 165.157 80.2587 165.157C80.2442 165.045 80.2153 164.934 80.2009 164.836C79.0309 158.827 78.3953 153.251 78.0631 148.26C77.2108 134.792 78.6842 125.591 78.5109 123.904C75.4775 94.5851 79.7098 78.4966 79.7098 78.4966C80.6487 75.5968 81.862 73.4917 83.1909 72.1114C86.2677 68.9049 89.9655 69.7135 92.2911 73.645C92.5222 74.0214 92.7533 74.4397 92.9556 74.8858C93.8078 76.7539 94.3711 79.138 94.5445 81.9541C94.92 87.9629 94.0389 97.3037 92.9556 105.752Z" fill="#F5A784"/>
<path d="M107.876 147.493C107.588 152.568 106.952 158.312 105.768 164.474C105.724 164.697 105.681 164.934 105.638 165.157C105.638 165.157 108.165 176.993 105.638 180.952C103.124 184.884 97.7652 182.486 98.2419 164.418C98.2419 164.334 98.2419 164.251 98.2419 164.167C97.8374 161.56 97.0285 155.872 96.393 149.152C95.9163 144.049 95.5407 138.333 95.5407 132.924C95.5407 130.164 95.6418 127.459 95.8729 124.963C95.8729 124.963 94.2696 116.027 92.9551 105.766C91.8718 97.3035 90.9762 87.9488 91.3517 81.94C91.5251 79.1238 92.1173 76.7398 92.9551 74.8717C93.1573 74.4116 93.374 73.9933 93.6196 73.603C96.2918 69.1278 100.741 68.7374 104.02 73.7703C104.814 75.0111 105.551 76.5586 106.186 78.4825C106.186 78.4825 110.419 94.571 107.385 123.89C107.212 125.549 108.642 134.444 107.876 147.479V147.493Z" fill="#F5A784"/>
<path d="M47.2384 91.0859C47.9028 91.6435 48.6973 92.243 49.564 92.0896C50.3873 91.9502 50.9506 91.0161 50.6906 90.2494C50.5462 89.8311 50.214 89.4965 49.8817 89.1898C47.7006 87.1125 45.4617 85.0771 43.1794 83.0834C42.7461 82.707 42.2549 82.3027 41.6627 82.2748C40.6949 82.233 39.5393 83.0695 39.5104 84.0454C39.4671 84.9377 40.2905 85.2862 40.926 85.7741C43.0927 87.475 45.1294 89.3153 47.2384 91.0859Z" fill="#222425"/>
<path d="M46.9207 88.6042C47.0074 88.5066 47.094 88.4229 47.1518 88.2974C47.2674 88.0186 47.1229 87.7119 46.964 87.461C46.444 86.6245 45.3318 85.2582 44.2484 85.1327C43.5406 85.0491 42.8473 85.4673 42.4284 86.025C41.7784 86.8894 41.6484 88.0744 42.0239 89.0782C42.3128 89.8728 43.0206 90.9464 43.8584 91.2809C44.7107 91.6295 45.8518 91.2809 46.2129 90.4305C46.4296 89.9147 46.3574 89.2873 46.704 88.8551C46.7763 88.7715 46.8485 88.7017 46.9207 88.632V88.6042Z" fill="#F5A784"/>
<path d="M102.201 39.2234C98.879 41.468 98.5613 45.8317 100.194 49.3031C101.291 51.6453 103.328 53.2625 104.556 55.4653C105.769 57.6541 107.228 59.5362 108.846 61.5019C112.428 65.8935 115.852 69.8668 117.152 71.3725C121.687 76.6145 131.192 83.4737 134.615 85.8717C135.395 86.4293 135.872 86.75 135.872 86.75C135.872 86.75 139.136 85.077 138.284 82.0099C138.284 82.0099 125.226 68.6958 123.363 65.9632C121.066 62.6173 119.492 58.63 117.57 55.061C115.36 50.9343 113.049 46.8494 110.651 42.8203C109.554 40.9801 108.167 38.5821 105.74 38.2336C104.772 38.0942 103.79 38.3591 102.938 38.8052C102.692 38.9307 102.447 39.0701 102.23 39.2234H102.201Z" fill="#F5A784"/>
<path d="M138.27 82.0378C137.62 81.9959 137.186 82.0378 137.186 82.0378C137.186 82.0378 134.066 83.7107 134.601 85.8717C134.601 85.8995 134.933 86.1644 135.453 86.6245C135.915 87.0427 136.536 87.6004 137.215 88.2556C137.706 88.7436 139.44 91.0997 140.162 90.8767C140.321 90.8209 140.436 90.7094 140.552 90.5839C141 90.1238 141.447 89.6498 141.881 89.1897C142.646 88.3811 143.889 87.0288 142.95 85.9414C143.629 86.3457 145.246 87.3216 146.055 86.8615L146.33 86.3457C146.33 86.3457 143.946 84.6309 142.964 83.7804C141.419 82.4421 139.454 82.0935 138.255 82.0378H138.27Z" fill="#F5A784"/>
<path d="M138.6 91.0859C137.936 91.6435 137.141 92.243 136.275 92.0896C135.451 91.9502 134.888 91.0161 135.148 90.2494C135.292 89.8311 135.625 89.4965 135.957 89.1898C138.138 87.1125 140.377 85.0771 142.659 83.0834C143.093 82.707 143.584 82.3027 144.176 82.2748C145.144 82.233 146.299 83.0695 146.328 84.0454C146.372 84.9377 145.548 85.2862 144.913 85.7741C142.746 87.475 140.709 89.3153 138.6 91.0859Z" fill="#222425"/>
<path d="M138.932 88.6042C138.845 88.5066 138.759 88.4229 138.701 88.2974C138.585 88.0186 138.73 87.7119 138.889 87.461C139.409 86.6245 140.521 85.2582 141.604 85.1327C142.312 85.0491 143.005 85.4673 143.424 86.025C144.074 86.8894 144.204 88.0744 143.829 89.0782C143.54 89.8728 142.832 90.9464 141.994 91.2809C141.142 91.6295 140.001 91.2809 139.64 90.4305C139.423 89.9147 139.495 89.2873 139.149 88.8551C139.077 88.7715 139.004 88.7017 138.932 88.632V88.6042Z" fill="#F5A784"/>
<path d="M108.094 138.571C108.094 139.017 108.094 139.477 108.094 139.951C108.094 140.885 108.094 141.847 108.05 142.837C108.05 143.213 108.036 143.589 108.007 143.966C107.978 145.109 107.92 146.28 107.862 147.507C104.165 148.539 100.308 149.013 96.3934 149.166C96.249 147.605 95.9167 143.45 95.9023 142.99C95.8301 142.028 95.7001 139.365 95.6712 139.003C95.5701 136.967 95.5267 134.932 95.5267 132.938C95.5267 130.345 95.6278 127.808 95.8156 125.452C95.8156 125.284 95.8445 125.131 95.859 124.978C95.859 124.978 94.2411 116.041 92.9411 105.78C92.7967 106.868 92.6522 107.955 92.5078 109.001C91.2944 117.84 90.0088 124.978 90.0088 124.978C90.24 127.459 90.3266 130.15 90.3266 132.91C90.3266 135.015 90.2688 137.162 90.1822 139.295C90.1677 139.658 89.8788 144.314 89.85 144.761C89.7488 146.238 89.6188 147.716 89.4888 149.124C87.481 149.041 85.4877 148.901 83.4943 148.748C81.9343 148.622 79.9698 148.553 78.0631 148.274C77.9764 147.033 77.9186 145.82 77.8897 144.649C77.8753 144.356 77.8608 144.063 77.8608 143.771C77.832 142.488 77.7886 141.261 77.7886 140.09V139.184C77.8319 130.735 78.6409 125.173 78.5109 123.904C75.4775 94.5851 79.7098 78.4966 79.7098 78.4966C80.6487 75.5968 81.862 73.4917 83.1909 72.1115C84.4187 72.209 85.6176 72.697 86.8166 73.0455C88.5933 73.5335 90.4277 73.6589 92.2911 73.645C92.7389 73.645 93.1722 73.6311 93.62 73.6171C95.2234 73.5613 96.8267 73.4359 98.4156 73.394C98.7768 73.394 99.1379 73.3801 99.4846 73.3801C101.001 73.3801 102.547 73.4916 104.02 73.7984C104.815 75.0392 105.551 76.5867 106.187 78.5106C106.187 78.5106 107.646 84.0314 108.238 94.5015C108.657 101.918 108.643 111.803 107.386 123.932C107.256 125.173 108.021 130.498 108.094 138.598V138.571Z" fill="#222425"/>
<path d="M87.6247 164.167C87.8269 171.375 87.1192 176.115 86.0358 178.987C84.3602 183.406 81.7746 183.351 80.2435 180.953C79.8824 180.395 79.6224 179.656 79.449 178.82C78.3946 173.857 80.2435 165.157 80.2435 165.157C80.229 165.045 80.2001 164.934 80.1857 164.836C80.9657 165.282 81.5579 165.743 82.5835 165.91C86.4403 166.551 87.538 163.805 87.6825 163.819C87.6825 163.93 87.6536 164.056 87.6392 164.167H87.6247Z" fill="url(#paint0_linear_515_599)"/>
<path d="M106.505 178.429C106.331 179.419 106.057 180.297 105.638 180.953C104.078 183.406 101.391 183.406 99.73 178.652C98.7044 175.794 98.0544 171.222 98.2422 164.418C98.5311 164.404 99.86 166.105 102.171 165.924C103.457 165.826 104.757 165.282 105.71 164.516C105.71 164.711 105.681 164.934 105.638 165.157C105.638 165.157 107.4 173.41 106.505 178.429Z" fill="url(#paint1_linear_515_599)"/>
<path d="M85.4591 168.447C84.2313 167.666 81.8046 167.541 80.6201 168.461C80.4757 168.573 80.5912 168.81 80.7646 168.81C81.4868 168.782 82.1512 168.531 82.8879 168.531C83.7113 168.531 84.4335 168.796 85.2135 168.977C85.5602 169.061 85.7335 168.614 85.4446 168.433L85.4591 168.447Z" fill="#291B30"/>
<path d="M85.2272 170.692C84.1438 169.911 82.4249 169.841 81.1393 169.981C80.6626 170.036 80.6482 170.747 81.1393 170.706C81.8327 170.65 82.4971 170.664 83.1905 170.789C83.8116 170.901 84.3749 171.166 84.9816 171.291C85.3716 171.375 85.5305 170.915 85.2416 170.706L85.2272 170.692Z" fill="#291B30"/>
<path d="M104.352 168.447C103.239 168.085 100.871 167.945 100.018 168.921C99.9027 169.047 99.9605 169.325 100.177 169.297C100.856 169.228 101.448 168.949 102.156 168.921C102.864 168.907 103.572 169.074 104.265 169.033C104.612 169.019 104.684 168.559 104.352 168.447Z" fill="#291B30"/>
<path d="M104.887 170.803C103.674 170.301 100.684 169.925 100.077 171.486C99.9904 171.696 100.265 171.863 100.453 171.765C101.695 171.082 103.24 171.012 104.569 171.556C105.003 171.737 105.335 170.998 104.887 170.817V170.803Z" fill="#291B30"/>
<path d="M50.1984 37.6063C50.1984 37.5087 50.0251 37.5087 50.0106 37.6063C49.3028 42.3603 49.7217 47.4211 49.7217 52.2169C49.7217 57.3613 49.5484 62.5476 49.8662 67.692C49.8806 67.9987 50.3428 67.9987 50.3717 67.692C50.6895 62.5476 50.5162 57.3613 50.5162 52.2169C50.5162 47.4211 50.9351 42.3464 50.2273 37.6063H50.1984Z" fill="#E8CEE5"/>
<path d="M56.5114 39.1816C56.5114 38.8052 55.9047 38.8052 55.9047 39.1816C55.8758 43.7544 55.5869 48.4109 55.9047 52.9698C55.9336 53.3462 56.4825 53.3462 56.5114 52.9698C56.8292 48.4109 56.5403 43.7544 56.5114 39.1816Z" fill="#E8CEE5"/>
<path d="M121.094 87.0565C121.065 86.8195 120.733 86.8195 120.704 87.0565C120.083 92.9677 120.429 99.0881 120.458 105.027C120.487 111.022 120.487 117.003 120.689 122.998C120.689 123.263 121.108 123.263 121.123 122.998C121.311 117.003 121.325 111.022 121.354 105.027C121.383 99.0881 121.729 92.9677 121.108 87.0565H121.094Z" fill="#E8CEE5"/>
<path d="M132.275 51.9938C132.072 48.0484 132.116 43.9635 131.466 40.0599C131.422 39.8229 131.076 39.8926 131.047 40.1157C130.743 44.326 131.22 48.6758 131.408 52.8861C131.581 56.8455 131.538 60.9164 132.101 64.8479C132.159 65.2104 132.722 65.0988 132.751 64.7642C132.953 60.54 132.491 56.2181 132.275 51.9938Z" fill="#E8CEE5"/>
<path d="M135.177 54.2104C135.177 54.0292 134.888 54.0292 134.874 54.2104C134.642 59.9403 134.31 65.6703 134.787 71.4142C134.816 71.7209 135.249 71.7209 135.278 71.4142C135.755 65.6843 135.423 59.9543 135.191 54.2104H135.177Z" fill="#E8CEE5"/>
<path d="M92.5225 109.001C92.5658 107.858 92.6958 106.784 92.9558 105.78C92.8113 106.868 92.6669 107.955 92.5225 109.001Z" fill="#291B30"/>
<path d="M108.223 94.4736C106.288 83.181 90.1818 82.6373 90.1818 82.6373C89.1707 77.9111 95.6852 76.5309 95.6852 76.5309L99.4842 73.3662C101.001 73.3662 102.546 73.4777 104.02 73.7844C104.814 75.0252 105.551 76.5727 106.187 78.4967C106.187 78.4967 107.645 84.0175 108.238 94.4876L108.223 94.4736Z" fill="#0E0E0E"/>
<path d="M106.462 79.6956C93.4619 85.5928 79.335 80.1836 79.335 80.1836C80.3605 77.3674 79.595 63.175 79.5227 60.4703C79.5227 60.4145 79.5227 60.3727 79.5227 60.3309C79.5227 60.1357 79.5083 60.0242 79.5083 60.0242C82.2383 53.9178 82.5417 42.1512 82.5561 38.1081C83.7839 37.9408 85.0695 37.8293 86.1817 37.7736C86.6151 42.2906 88.1462 53.8899 92.4508 53.3741C96.6253 52.8722 98.8064 42.5555 99.5575 38.0663C100.309 38.2336 101.421 38.2336 101.955 38.2197C102.201 38.2197 102.461 38.2057 102.706 38.1778C102.331 44.3539 105.87 57.3334 105.985 57.7377C105.971 57.8353 105.957 57.9329 105.942 58.0445C105.884 58.3791 105.841 58.7415 105.798 59.104C105.798 59.1737 105.783 59.2574 105.769 59.341C104.945 67.1762 106.462 79.6956 106.462 79.6956Z" fill="url(#paint2_linear_515_599)"/>
<defs>
<filter id="filter0_d_515_599" x="0" y="0.5" width="188.079" height="204.267" filterUnits="userSpaceOnUse" color-interpolation-filters="sRGB">
<feFlood flood-opacity="0" result="BackgroundImageFix"/>
<feColorMatrix in="SourceAlpha" type="matrix" values="0 0 0 0 0 0 0 0 0 0 0 0 0 0 0 0 0 0 127 0" result="hardAlpha"/>
<feMorphology radius="5" operator="dilate" in="SourceAlpha" result="effect1_dropShadow_515_599"/>
<feOffset dx="-1" dy="15"/>
<feGaussianBlur stdDeviation="7.5"/>
<feComposite in2="hardAlpha" operator="out"/>
<feColorMatrix type="matrix" values="0 0 0 0 0 0 0 0 0 0 0 0 0 0 0 0 0 0 0.1 0"/>
<feBlend mode="normal" in2="BackgroundImageFix" result="effect1_dropShadow_515_599"/>
<feBlend mode="normal" in="SourceGraphic" in2="effect1_dropShadow_515_599" result="shape"/>
</filter>
<linearGradient id="paint0_linear_515_599" x1="87.6825" y1="182.577" x2="76.2218" y2="182.173" gradientUnits="userSpaceOnUse">
<stop stop-color="#008080"/>
<stop offset="1" stop-color="#00FFA3"/>
</linearGradient>
<linearGradient id="paint1_linear_515_599" x1="106.758" y1="182.575" x2="95.3121" y2="182.158" gradientUnits="userSpaceOnUse">
<stop stop-color="#008080"/>
<stop offset="1" stop-color="#00FFA3"/>
</linearGradient>
<linearGradient id="paint2_linear_515_599" x1="106.462" y1="82.4494" x2="70.1709" y2="80.7442" gradientUnits="userSpaceOnUse">
<stop stop-color="#008080"/>
<stop offset="1" stop-color="#00FFA3"/>
</linearGradient>
</defs>
</svg>
